%TF.GenerationSoftware,KiCad,Pcbnew,7.0.7*%
%TF.CreationDate,2023-11-02T14:39:43+09:00*%
%TF.ProjectId,tangnano20k-vectrex,74616e67-6e61-46e6-9f32-306b2d766563,rev?*%
%TF.SameCoordinates,Original*%
%TF.FileFunction,Legend,Bot*%
%TF.FilePolarity,Positive*%
%FSLAX46Y46*%
G04 Gerber Fmt 4.6, Leading zero omitted, Abs format (unit mm)*
G04 Created by KiCad (PCBNEW 7.0.7) date 2023-11-02 14:39:43*
%MOMM*%
%LPD*%
G01*
G04 APERTURE LIST*
%ADD10C,0.150000*%
%ADD11C,0.120000*%
G04 APERTURE END LIST*
D10*
X83566000Y-45720000D02*
X254000Y-45720000D01*
X73434411Y-60512438D02*
X73529649Y-60464819D01*
X73529649Y-60464819D02*
X73672506Y-60464819D01*
X73672506Y-60464819D02*
X73815363Y-60512438D01*
X73815363Y-60512438D02*
X73910601Y-60607676D01*
X73910601Y-60607676D02*
X73958220Y-60702914D01*
X73958220Y-60702914D02*
X74005839Y-60893390D01*
X74005839Y-60893390D02*
X74005839Y-61036247D01*
X74005839Y-61036247D02*
X73958220Y-61226723D01*
X73958220Y-61226723D02*
X73910601Y-61321961D01*
X73910601Y-61321961D02*
X73815363Y-61417200D01*
X73815363Y-61417200D02*
X73672506Y-61464819D01*
X73672506Y-61464819D02*
X73577268Y-61464819D01*
X73577268Y-61464819D02*
X73434411Y-61417200D01*
X73434411Y-61417200D02*
X73386792Y-61369580D01*
X73386792Y-61369580D02*
X73386792Y-61036247D01*
X73386792Y-61036247D02*
X73577268Y-61036247D01*
X72958220Y-61464819D02*
X72958220Y-60464819D01*
X72958220Y-60464819D02*
X72386792Y-61464819D01*
X72386792Y-61464819D02*
X72386792Y-60464819D01*
X71910601Y-61464819D02*
X71910601Y-60464819D01*
X71910601Y-60464819D02*
X71672506Y-60464819D01*
X71672506Y-60464819D02*
X71529649Y-60512438D01*
X71529649Y-60512438D02*
X71434411Y-60607676D01*
X71434411Y-60607676D02*
X71386792Y-60702914D01*
X71386792Y-60702914D02*
X71339173Y-60893390D01*
X71339173Y-60893390D02*
X71339173Y-61036247D01*
X71339173Y-61036247D02*
X71386792Y-61226723D01*
X71386792Y-61226723D02*
X71434411Y-61321961D01*
X71434411Y-61321961D02*
X71529649Y-61417200D01*
X71529649Y-61417200D02*
X71672506Y-61464819D01*
X71672506Y-61464819D02*
X71910601Y-61464819D01*
X73434411Y-57972438D02*
X73529649Y-57924819D01*
X73529649Y-57924819D02*
X73672506Y-57924819D01*
X73672506Y-57924819D02*
X73815363Y-57972438D01*
X73815363Y-57972438D02*
X73910601Y-58067676D01*
X73910601Y-58067676D02*
X73958220Y-58162914D01*
X73958220Y-58162914D02*
X74005839Y-58353390D01*
X74005839Y-58353390D02*
X74005839Y-58496247D01*
X74005839Y-58496247D02*
X73958220Y-58686723D01*
X73958220Y-58686723D02*
X73910601Y-58781961D01*
X73910601Y-58781961D02*
X73815363Y-58877200D01*
X73815363Y-58877200D02*
X73672506Y-58924819D01*
X73672506Y-58924819D02*
X73577268Y-58924819D01*
X73577268Y-58924819D02*
X73434411Y-58877200D01*
X73434411Y-58877200D02*
X73386792Y-58829580D01*
X73386792Y-58829580D02*
X73386792Y-58496247D01*
X73386792Y-58496247D02*
X73577268Y-58496247D01*
X72958220Y-58924819D02*
X72958220Y-57924819D01*
X72958220Y-57924819D02*
X72386792Y-58924819D01*
X72386792Y-58924819D02*
X72386792Y-57924819D01*
X71910601Y-58924819D02*
X71910601Y-57924819D01*
X71910601Y-57924819D02*
X71672506Y-57924819D01*
X71672506Y-57924819D02*
X71529649Y-57972438D01*
X71529649Y-57972438D02*
X71434411Y-58067676D01*
X71434411Y-58067676D02*
X71386792Y-58162914D01*
X71386792Y-58162914D02*
X71339173Y-58353390D01*
X71339173Y-58353390D02*
X71339173Y-58496247D01*
X71339173Y-58496247D02*
X71386792Y-58686723D01*
X71386792Y-58686723D02*
X71434411Y-58781961D01*
X71434411Y-58781961D02*
X71529649Y-58877200D01*
X71529649Y-58877200D02*
X71672506Y-58924819D01*
X71672506Y-58924819D02*
X71910601Y-58924819D01*
X81673458Y-57924819D02*
X81006792Y-58924819D01*
X81006792Y-57924819D02*
X81673458Y-58924819D01*
X81673458Y-63004819D02*
X81006792Y-63004819D01*
X81006792Y-63004819D02*
X81673458Y-64004819D01*
X81673458Y-64004819D02*
X81006792Y-64004819D01*
X73434411Y-54162438D02*
X73529649Y-54114819D01*
X73529649Y-54114819D02*
X73672506Y-54114819D01*
X73672506Y-54114819D02*
X73815363Y-54162438D01*
X73815363Y-54162438D02*
X73910601Y-54257676D01*
X73910601Y-54257676D02*
X73958220Y-54352914D01*
X73958220Y-54352914D02*
X74005839Y-54543390D01*
X74005839Y-54543390D02*
X74005839Y-54686247D01*
X74005839Y-54686247D02*
X73958220Y-54876723D01*
X73958220Y-54876723D02*
X73910601Y-54971961D01*
X73910601Y-54971961D02*
X73815363Y-55067200D01*
X73815363Y-55067200D02*
X73672506Y-55114819D01*
X73672506Y-55114819D02*
X73577268Y-55114819D01*
X73577268Y-55114819D02*
X73434411Y-55067200D01*
X73434411Y-55067200D02*
X73386792Y-55019580D01*
X73386792Y-55019580D02*
X73386792Y-54686247D01*
X73386792Y-54686247D02*
X73577268Y-54686247D01*
X72958220Y-55114819D02*
X72958220Y-54114819D01*
X72958220Y-54114819D02*
X72386792Y-55114819D01*
X72386792Y-55114819D02*
X72386792Y-54114819D01*
X71910601Y-55114819D02*
X71910601Y-54114819D01*
X71910601Y-54114819D02*
X71672506Y-54114819D01*
X71672506Y-54114819D02*
X71529649Y-54162438D01*
X71529649Y-54162438D02*
X71434411Y-54257676D01*
X71434411Y-54257676D02*
X71386792Y-54352914D01*
X71386792Y-54352914D02*
X71339173Y-54543390D01*
X71339173Y-54543390D02*
X71339173Y-54686247D01*
X71339173Y-54686247D02*
X71386792Y-54876723D01*
X71386792Y-54876723D02*
X71434411Y-54971961D01*
X71434411Y-54971961D02*
X71529649Y-55067200D01*
X71529649Y-55067200D02*
X71672506Y-55114819D01*
X71672506Y-55114819D02*
X71910601Y-55114819D01*
X73434411Y-63052438D02*
X73529649Y-63004819D01*
X73529649Y-63004819D02*
X73672506Y-63004819D01*
X73672506Y-63004819D02*
X73815363Y-63052438D01*
X73815363Y-63052438D02*
X73910601Y-63147676D01*
X73910601Y-63147676D02*
X73958220Y-63242914D01*
X73958220Y-63242914D02*
X74005839Y-63433390D01*
X74005839Y-63433390D02*
X74005839Y-63576247D01*
X74005839Y-63576247D02*
X73958220Y-63766723D01*
X73958220Y-63766723D02*
X73910601Y-63861961D01*
X73910601Y-63861961D02*
X73815363Y-63957200D01*
X73815363Y-63957200D02*
X73672506Y-64004819D01*
X73672506Y-64004819D02*
X73577268Y-64004819D01*
X73577268Y-64004819D02*
X73434411Y-63957200D01*
X73434411Y-63957200D02*
X73386792Y-63909580D01*
X73386792Y-63909580D02*
X73386792Y-63576247D01*
X73386792Y-63576247D02*
X73577268Y-63576247D01*
X72958220Y-64004819D02*
X72958220Y-63004819D01*
X72958220Y-63004819D02*
X72386792Y-64004819D01*
X72386792Y-64004819D02*
X72386792Y-63004819D01*
X71910601Y-64004819D02*
X71910601Y-63004819D01*
X71910601Y-63004819D02*
X71672506Y-63004819D01*
X71672506Y-63004819D02*
X71529649Y-63052438D01*
X71529649Y-63052438D02*
X71434411Y-63147676D01*
X71434411Y-63147676D02*
X71386792Y-63242914D01*
X71386792Y-63242914D02*
X71339173Y-63433390D01*
X71339173Y-63433390D02*
X71339173Y-63576247D01*
X71339173Y-63576247D02*
X71386792Y-63766723D01*
X71386792Y-63766723D02*
X71434411Y-63861961D01*
X71434411Y-63861961D02*
X71529649Y-63957200D01*
X71529649Y-63957200D02*
X71672506Y-64004819D01*
X71672506Y-64004819D02*
X71910601Y-64004819D01*
X82848220Y-54098866D02*
X82086316Y-54098866D01*
X82467268Y-54479819D02*
X82467268Y-53717914D01*
X81133935Y-53479819D02*
X81610125Y-53479819D01*
X81610125Y-53479819D02*
X81657744Y-53956009D01*
X81657744Y-53956009D02*
X81610125Y-53908390D01*
X81610125Y-53908390D02*
X81514887Y-53860771D01*
X81514887Y-53860771D02*
X81276792Y-53860771D01*
X81276792Y-53860771D02*
X81181554Y-53908390D01*
X81181554Y-53908390D02*
X81133935Y-53956009D01*
X81133935Y-53956009D02*
X81086316Y-54051247D01*
X81086316Y-54051247D02*
X81086316Y-54289342D01*
X81086316Y-54289342D02*
X81133935Y-54384580D01*
X81133935Y-54384580D02*
X81181554Y-54432200D01*
X81181554Y-54432200D02*
X81276792Y-54479819D01*
X81276792Y-54479819D02*
X81514887Y-54479819D01*
X81514887Y-54479819D02*
X81610125Y-54432200D01*
X81610125Y-54432200D02*
X81657744Y-54384580D01*
X80800601Y-53479819D02*
X80467268Y-54479819D01*
X80467268Y-54479819D02*
X80133935Y-53479819D01*
X81387744Y-60988628D02*
X81387744Y-61464819D01*
X81721077Y-60464819D02*
X81387744Y-60988628D01*
X81387744Y-60988628D02*
X81054411Y-60464819D01*
X82724523Y-55334819D02*
X82724523Y-56049104D01*
X82724523Y-56049104D02*
X82772142Y-56191961D01*
X82772142Y-56191961D02*
X82867380Y-56287200D01*
X82867380Y-56287200D02*
X83010237Y-56334819D01*
X83010237Y-56334819D02*
X83105475Y-56334819D01*
X81724523Y-56334819D02*
X82295951Y-56334819D01*
X82010237Y-56334819D02*
X82010237Y-55334819D01*
X82010237Y-55334819D02*
X82105475Y-55477676D01*
X82105475Y-55477676D02*
X82200713Y-55572914D01*
X82200713Y-55572914D02*
X82295951Y-55620533D01*
X81343570Y-55430057D02*
X81295951Y-55382438D01*
X81295951Y-55382438D02*
X81200713Y-55334819D01*
X81200713Y-55334819D02*
X80962618Y-55334819D01*
X80962618Y-55334819D02*
X80867380Y-55382438D01*
X80867380Y-55382438D02*
X80819761Y-55430057D01*
X80819761Y-55430057D02*
X80772142Y-55525295D01*
X80772142Y-55525295D02*
X80772142Y-55620533D01*
X80772142Y-55620533D02*
X80819761Y-55763390D01*
X80819761Y-55763390D02*
X81391189Y-56334819D01*
X81391189Y-56334819D02*
X80772142Y-56334819D01*
X77803333Y-65494819D02*
X77803333Y-66209104D01*
X77803333Y-66209104D02*
X77850952Y-66351961D01*
X77850952Y-66351961D02*
X77946190Y-66447200D01*
X77946190Y-66447200D02*
X78089047Y-66494819D01*
X78089047Y-66494819D02*
X78184285Y-66494819D01*
X76898571Y-65494819D02*
X77089047Y-65494819D01*
X77089047Y-65494819D02*
X77184285Y-65542438D01*
X77184285Y-65542438D02*
X77231904Y-65590057D01*
X77231904Y-65590057D02*
X77327142Y-65732914D01*
X77327142Y-65732914D02*
X77374761Y-65923390D01*
X77374761Y-65923390D02*
X77374761Y-66304342D01*
X77374761Y-66304342D02*
X77327142Y-66399580D01*
X77327142Y-66399580D02*
X77279523Y-66447200D01*
X77279523Y-66447200D02*
X77184285Y-66494819D01*
X77184285Y-66494819D02*
X76993809Y-66494819D01*
X76993809Y-66494819D02*
X76898571Y-66447200D01*
X76898571Y-66447200D02*
X76850952Y-66399580D01*
X76850952Y-66399580D02*
X76803333Y-66304342D01*
X76803333Y-66304342D02*
X76803333Y-66066247D01*
X76803333Y-66066247D02*
X76850952Y-65971009D01*
X76850952Y-65971009D02*
X76898571Y-65923390D01*
X76898571Y-65923390D02*
X76993809Y-65875771D01*
X76993809Y-65875771D02*
X77184285Y-65875771D01*
X77184285Y-65875771D02*
X77279523Y-65923390D01*
X77279523Y-65923390D02*
X77327142Y-65971009D01*
X77327142Y-65971009D02*
X77374761Y-66066247D01*
D11*
%TO.C,J12*%
X74870000Y-55686000D02*
X74870000Y-53026000D01*
X77470000Y-55686000D02*
X74870000Y-55686000D01*
X77470000Y-55686000D02*
X77470000Y-53026000D01*
X78740000Y-55686000D02*
X80070000Y-55686000D01*
X80070000Y-55686000D02*
X80070000Y-54356000D01*
X77470000Y-53026000D02*
X74870000Y-53026000D01*
%TO.C,J6*%
X80070000Y-64830000D02*
X74870000Y-64830000D01*
X80070000Y-59690000D02*
X80070000Y-64830000D01*
X80070000Y-59690000D02*
X77470000Y-59690000D01*
X80070000Y-58420000D02*
X80070000Y-57090000D01*
X80070000Y-57090000D02*
X78740000Y-57090000D01*
X77470000Y-59690000D02*
X77470000Y-57090000D01*
X77470000Y-57090000D02*
X74870000Y-57090000D01*
X74870000Y-57090000D02*
X74870000Y-64830000D01*
%TD*%
M02*
