%TF.GenerationSoftware,KiCad,Pcbnew,7.0.7*%
%TF.CreationDate,2023-11-02T14:39:43+09:00*%
%TF.ProjectId,tangnano20k-vectrex,74616e67-6e61-46e6-9f32-306b2d766563,rev?*%
%TF.SameCoordinates,Original*%
%TF.FileFunction,Soldermask,Top*%
%TF.FilePolarity,Negative*%
%FSLAX46Y46*%
G04 Gerber Fmt 4.6, Leading zero omitted, Abs format (unit mm)*
G04 Created by KiCad (PCBNEW 7.0.7) date 2023-11-02 14:39:43*
%MOMM*%
%LPD*%
G01*
G04 APERTURE LIST*
G04 Aperture macros list*
%AMRoundRect*
0 Rectangle with rounded corners*
0 $1 Rounding radius*
0 $2 $3 $4 $5 $6 $7 $8 $9 X,Y pos of 4 corners*
0 Add a 4 corners polygon primitive as box body*
4,1,4,$2,$3,$4,$5,$6,$7,$8,$9,$2,$3,0*
0 Add four circle primitives for the rounded corners*
1,1,$1+$1,$2,$3*
1,1,$1+$1,$4,$5*
1,1,$1+$1,$6,$7*
1,1,$1+$1,$8,$9*
0 Add four rect primitives between the rounded corners*
20,1,$1+$1,$2,$3,$4,$5,0*
20,1,$1+$1,$4,$5,$6,$7,0*
20,1,$1+$1,$6,$7,$8,$9,0*
20,1,$1+$1,$8,$9,$2,$3,0*%
G04 Aperture macros list end*
%ADD10C,1.440000*%
%ADD11RoundRect,0.250001X-0.499999X-0.924999X0.499999X-0.924999X0.499999X0.924999X-0.499999X0.924999X0*%
%ADD12C,1.600000*%
%ADD13R,1.700000X1.700000*%
%ADD14O,1.700000X1.700000*%
%ADD15RoundRect,0.237500X0.300000X0.237500X-0.300000X0.237500X-0.300000X-0.237500X0.300000X-0.237500X0*%
%ADD16RoundRect,0.250001X0.499999X0.924999X-0.499999X0.924999X-0.499999X-0.924999X0.499999X-0.924999X0*%
%ADD17O,1.600000X1.600000*%
%ADD18RoundRect,0.237500X-0.237500X0.300000X-0.237500X-0.300000X0.237500X-0.300000X0.237500X0.300000X0*%
%ADD19R,1.600000X1.600000*%
%ADD20RoundRect,0.250001X-0.924999X0.499999X-0.924999X-0.499999X0.924999X-0.499999X0.924999X0.499999X0*%
%ADD21R,1.450000X1.450000*%
%ADD22C,1.450000*%
%ADD23RoundRect,0.237500X0.237500X-0.300000X0.237500X0.300000X-0.237500X0.300000X-0.237500X-0.300000X0*%
%ADD24R,7.874000X2.413000*%
%ADD25R,0.558800X0.800000*%
%ADD26C,3.000000*%
%ADD27RoundRect,0.237500X-0.300000X-0.237500X0.300000X-0.237500X0.300000X0.237500X-0.300000X0.237500X0*%
%ADD28RoundRect,0.250001X0.924999X-0.499999X0.924999X0.499999X-0.924999X0.499999X-0.924999X-0.499999X0*%
%ADD29R,1.200000X1.200000*%
%ADD30C,1.200000*%
%ADD31RoundRect,0.150000X0.150000X-0.512500X0.150000X0.512500X-0.150000X0.512500X-0.150000X-0.512500X0*%
G04 APERTURE END LIST*
D10*
%TO.C,RV13*%
X20320000Y-41910000D03*
X22860000Y-39370000D03*
X25400000Y-41910000D03*
%TD*%
D11*
%TO.C,C2*%
X47550000Y-59690000D03*
X50800000Y-59690000D03*
%TD*%
D12*
%TO.C,C26*%
X10160000Y-15320000D03*
X10160000Y-20320000D03*
%TD*%
D13*
%TO.C,J4*%
X78740000Y-48260000D03*
D14*
X78740000Y-50800000D03*
%TD*%
D15*
%TO.C,C9*%
X57150000Y-86360000D03*
X55425000Y-86360000D03*
%TD*%
D16*
%TO.C,C20*%
X42620000Y-38100000D03*
X39370000Y-38100000D03*
%TD*%
D12*
%TO.C,R25*%
X59690000Y-33020000D03*
D17*
X59690000Y-30480000D03*
%TD*%
D12*
%TO.C,R18*%
X62230000Y-35560000D03*
D17*
X59690000Y-35560000D03*
%TD*%
D18*
%TO.C,C34*%
X62230000Y-31295000D03*
X62230000Y-33020000D03*
%TD*%
D15*
%TO.C,C8*%
X57150000Y-73660000D03*
X55425000Y-73660000D03*
%TD*%
D13*
%TO.C,J11*%
X78740000Y-36830000D03*
D14*
X76200000Y-36830000D03*
%TD*%
D19*
%TO.C,U6*%
X48260000Y-13970000D03*
D17*
X50800000Y-13970000D03*
X53340000Y-13970000D03*
X55880000Y-13970000D03*
X55880000Y-6350000D03*
X53340000Y-6350000D03*
X50800000Y-6350000D03*
X48260000Y-6350000D03*
%TD*%
D12*
%TO.C,R4*%
X81930000Y-11505000D03*
D17*
X81930000Y-8965000D03*
%TD*%
D20*
%TO.C,C3*%
X73660000Y-47752000D03*
X73660000Y-51002000D03*
%TD*%
D21*
%TO.C,PS1*%
X65405000Y-41910000D03*
D22*
X65405000Y-39370000D03*
X65405000Y-34290000D03*
X65405000Y-31750000D03*
X65405000Y-29210000D03*
%TD*%
D10*
%TO.C,RV7*%
X36830000Y-5155000D03*
X39370000Y-2615000D03*
X41910000Y-5155000D03*
%TD*%
D12*
%TO.C,R23*%
X8890000Y-30480000D03*
D17*
X6350000Y-30480000D03*
%TD*%
D13*
%TO.C,J7*%
X78740000Y-33020000D03*
D14*
X76200000Y-33020000D03*
X78740000Y-30480000D03*
X76200000Y-30480000D03*
X78740000Y-27940000D03*
X76200000Y-27940000D03*
%TD*%
D23*
%TO.C,C29*%
X63092500Y-41095000D03*
X63092500Y-39370000D03*
%TD*%
D10*
%TO.C,RV12*%
X53355000Y-40715000D03*
X55895000Y-38175000D03*
X58435000Y-40715000D03*
%TD*%
D13*
%TO.C,J2*%
X2540000Y-88900000D03*
D14*
X5080000Y-88900000D03*
X7620000Y-88900000D03*
X10160000Y-88900000D03*
X12700000Y-88900000D03*
X15240000Y-88900000D03*
X17780000Y-88900000D03*
X20320000Y-88900000D03*
X22860000Y-88900000D03*
X25400000Y-88900000D03*
X27940000Y-88900000D03*
X30480000Y-88900000D03*
X33020000Y-88900000D03*
X35560000Y-88900000D03*
X38100000Y-88900000D03*
X40640000Y-88900000D03*
X43180000Y-88900000D03*
X45720000Y-88900000D03*
X48260000Y-88900000D03*
X50800000Y-88900000D03*
%TD*%
D12*
%TO.C,C27*%
X13970000Y-25480000D03*
X18970000Y-25480000D03*
%TD*%
%TO.C,R24*%
X59690000Y-27940000D03*
D17*
X59690000Y-25400000D03*
%TD*%
D16*
%TO.C,C14*%
X43255000Y-17780000D03*
X40005000Y-17780000D03*
%TD*%
D24*
%TO.C,U8*%
X33147000Y-36830000D03*
D19*
X29210000Y-40640000D03*
D25*
X31115000Y-39179500D03*
D17*
X31750000Y-40640000D03*
D25*
X32385000Y-39179500D03*
D17*
X34290000Y-40640000D03*
D25*
X33655000Y-39179500D03*
D17*
X36830000Y-40640000D03*
D25*
X34925000Y-39179500D03*
X34925000Y-34436000D03*
D17*
X36830000Y-33020000D03*
D25*
X33655000Y-34436000D03*
D17*
X34290000Y-33020000D03*
D25*
X32385000Y-34436000D03*
D17*
X31750000Y-33020000D03*
D25*
X31115000Y-34436000D03*
D17*
X29210000Y-33020000D03*
%TD*%
D12*
%TO.C,C16*%
X53340000Y-16510000D03*
X48340000Y-16510000D03*
%TD*%
D13*
%TO.C,J1*%
X73660000Y-68580000D03*
D14*
X73660000Y-71120000D03*
X73660000Y-73660000D03*
X73660000Y-76200000D03*
X73660000Y-78740000D03*
X73660000Y-81280000D03*
%TD*%
D12*
%TO.C,R12*%
X25400000Y-25400000D03*
D17*
X22860000Y-25400000D03*
%TD*%
D16*
%TO.C,C1*%
X41350000Y-62230000D03*
X38100000Y-62230000D03*
%TD*%
D12*
%TO.C,R26*%
X8890000Y-27940000D03*
D17*
X6350000Y-27940000D03*
%TD*%
D15*
%TO.C,C21*%
X26262500Y-33020000D03*
X24537500Y-33020000D03*
%TD*%
D12*
%TO.C,R9*%
X60960000Y-19050000D03*
D17*
X60960000Y-16510000D03*
%TD*%
D18*
%TO.C,C24*%
X58420000Y-11837500D03*
X58420000Y-13562500D03*
%TD*%
D26*
%TO.C,H2*%
X80518000Y-3556000D03*
%TD*%
D12*
%TO.C,R7*%
X71755000Y-16510000D03*
D17*
X71755000Y-19050000D03*
%TD*%
D10*
%TO.C,RV9*%
X36845000Y-27940000D03*
X39385000Y-25400000D03*
X41925000Y-27940000D03*
%TD*%
D23*
%TO.C,C31*%
X72390000Y-43815000D03*
X72390000Y-42090000D03*
%TD*%
D10*
%TO.C,RV6*%
X29210000Y-5155000D03*
X31750000Y-2615000D03*
X34290000Y-5155000D03*
%TD*%
D13*
%TO.C,J5*%
X50800000Y-50800000D03*
D14*
X50800000Y-53340000D03*
X50800000Y-55880000D03*
%TD*%
D20*
%TO.C,C36*%
X72390000Y-24130000D03*
X72390000Y-27380000D03*
%TD*%
D13*
%TO.C,J8*%
X2540000Y-5080000D03*
D14*
X2540000Y-7620000D03*
%TD*%
D12*
%TO.C,FB1*%
X72136000Y-32512000D03*
D17*
X72136000Y-29972000D03*
%TD*%
D12*
%TO.C,R15*%
X6350000Y-20320000D03*
D17*
X6350000Y-17780000D03*
%TD*%
D26*
%TO.C,H4*%
X80518000Y-88138000D03*
%TD*%
D13*
%TO.C,J13*%
X2540000Y-33020000D03*
D14*
X2540000Y-35560000D03*
%TD*%
D24*
%TO.C,U7*%
X33147000Y-16510000D03*
D19*
X29210000Y-20320000D03*
D25*
X31115000Y-18859500D03*
D17*
X31750000Y-20320000D03*
D25*
X32385000Y-18859500D03*
D17*
X34290000Y-20320000D03*
D25*
X33655000Y-18859500D03*
D17*
X36830000Y-20320000D03*
D25*
X34925000Y-18859500D03*
X34925000Y-14116000D03*
D17*
X36830000Y-12700000D03*
D25*
X33655000Y-14116000D03*
D17*
X34290000Y-12700000D03*
D25*
X32385000Y-14116000D03*
D17*
X31750000Y-12700000D03*
D25*
X31115000Y-14116000D03*
D17*
X29210000Y-12700000D03*
%TD*%
D15*
%TO.C,C7*%
X56970000Y-60960000D03*
X55245000Y-60960000D03*
%TD*%
D19*
%TO.C,U4*%
X59690000Y-86360000D03*
D17*
X62230000Y-86360000D03*
X64770000Y-86360000D03*
X67310000Y-86360000D03*
X67310000Y-78740000D03*
X64770000Y-78740000D03*
X62230000Y-78740000D03*
X59690000Y-78740000D03*
%TD*%
D15*
%TO.C,C4*%
X64362500Y-51435000D03*
X62637500Y-51435000D03*
%TD*%
D19*
%TO.C,U3*%
X59690000Y-73660000D03*
D17*
X62230000Y-73660000D03*
X64770000Y-73660000D03*
X67310000Y-73660000D03*
X67310000Y-66040000D03*
X64770000Y-66040000D03*
X62230000Y-66040000D03*
X59690000Y-66040000D03*
%TD*%
D12*
%TO.C,R5*%
X71755000Y-11430000D03*
D17*
X71755000Y-8890000D03*
%TD*%
D12*
%TO.C,R1*%
X47625000Y-55880000D03*
D17*
X40005000Y-55880000D03*
%TD*%
D12*
%TO.C,R21*%
X8890000Y-33020000D03*
D17*
X6350000Y-33020000D03*
%TD*%
D26*
%TO.C,H3*%
X3302000Y-49276000D03*
%TD*%
D12*
%TO.C,R13*%
X25400000Y-27940000D03*
D17*
X22860000Y-27940000D03*
%TD*%
D10*
%TO.C,RV14*%
X50800000Y-22860000D03*
X53340000Y-20320000D03*
X55880000Y-22860000D03*
%TD*%
D12*
%TO.C,R16*%
X60960000Y-38100000D03*
D17*
X60960000Y-40640000D03*
%TD*%
D13*
%TO.C,J3*%
X2540000Y-68580000D03*
D14*
X5080000Y-68580000D03*
X7620000Y-68580000D03*
X10160000Y-68580000D03*
X12700000Y-68580000D03*
X15240000Y-68580000D03*
X17780000Y-68580000D03*
X20320000Y-68580000D03*
X22860000Y-68580000D03*
X25400000Y-68580000D03*
X27940000Y-68580000D03*
X30480000Y-68580000D03*
X33020000Y-68580000D03*
X35560000Y-68580000D03*
X38100000Y-68580000D03*
X40640000Y-68580000D03*
X43180000Y-68580000D03*
X45720000Y-68580000D03*
X48260000Y-68580000D03*
X50800000Y-68580000D03*
%TD*%
D12*
%TO.C,R3*%
X35560000Y-58420000D03*
D17*
X33020000Y-58420000D03*
%TD*%
D10*
%TO.C,RV10*%
X12700000Y-7620000D03*
X15240000Y-5080000D03*
X17780000Y-7620000D03*
%TD*%
D12*
%TO.C,C15*%
X55800000Y-3810000D03*
X50800000Y-3810000D03*
%TD*%
D15*
%TO.C,C17*%
X26262500Y-12700000D03*
X24537500Y-12700000D03*
%TD*%
D27*
%TO.C,C37*%
X74930000Y-24130000D03*
X76655000Y-24130000D03*
%TD*%
D12*
%TO.C,R19*%
X48260000Y-38100000D03*
D17*
X45720000Y-38100000D03*
%TD*%
D12*
%TO.C,R6*%
X81915000Y-16510000D03*
D17*
X81915000Y-19050000D03*
%TD*%
D19*
%TO.C,U10*%
X8890000Y-43180000D03*
D17*
X11430000Y-43180000D03*
X13970000Y-43180000D03*
X16510000Y-43180000D03*
X16510000Y-35560000D03*
X13970000Y-35560000D03*
X11430000Y-35560000D03*
X8890000Y-35560000D03*
%TD*%
D12*
%TO.C,R11*%
X25400000Y-8890000D03*
D17*
X22860000Y-8890000D03*
%TD*%
D12*
%TO.C,R2*%
X22860000Y-60960000D03*
D17*
X25400000Y-60960000D03*
%TD*%
D13*
%TO.C,LS1*%
X2540000Y-57150000D03*
D14*
X2540000Y-59690000D03*
%TD*%
D13*
%TO.C,J9*%
X2540000Y-15240000D03*
D14*
X2540000Y-17780000D03*
%TD*%
D10*
%TO.C,RV5*%
X63500000Y-19050000D03*
X66040000Y-16510000D03*
X68580000Y-19050000D03*
%TD*%
D19*
%TO.C,U5*%
X20320000Y-58420000D03*
D17*
X22860000Y-58420000D03*
X25400000Y-58420000D03*
X27940000Y-58420000D03*
X27940000Y-50800000D03*
X25400000Y-50800000D03*
X22860000Y-50800000D03*
X20320000Y-50800000D03*
%TD*%
D15*
%TO.C,C6*%
X64262000Y-76708000D03*
X62537000Y-76708000D03*
%TD*%
D10*
%TO.C,RV4*%
X63500000Y-11430000D03*
X66040000Y-8890000D03*
X68580000Y-11430000D03*
%TD*%
D19*
%TO.C,U2*%
X59690000Y-60960000D03*
D17*
X62230000Y-60960000D03*
X64770000Y-60960000D03*
X67310000Y-60960000D03*
X67310000Y-53340000D03*
X64770000Y-53340000D03*
X62230000Y-53340000D03*
X59690000Y-53340000D03*
%TD*%
D10*
%TO.C,RV11*%
X12700000Y-17780000D03*
X15240000Y-15240000D03*
X17780000Y-17780000D03*
%TD*%
D15*
%TO.C,C5*%
X64262000Y-64135000D03*
X62537000Y-64135000D03*
%TD*%
D12*
%TO.C,R22*%
X16510000Y-30480000D03*
D17*
X13970000Y-30480000D03*
%TD*%
D28*
%TO.C,C30*%
X74930000Y-43890000D03*
X74930000Y-40640000D03*
%TD*%
D13*
%TO.C,J10*%
X78740000Y-43180000D03*
D14*
X78740000Y-40640000D03*
%TD*%
D15*
%TO.C,C22*%
X41095000Y-40640000D03*
X39370000Y-40640000D03*
%TD*%
D26*
%TO.C,H1*%
X3302000Y-42418000D03*
%TD*%
D12*
%TO.C,R20*%
X48260000Y-25400000D03*
D17*
X48260000Y-22860000D03*
%TD*%
D18*
%TO.C,C23*%
X45720000Y-6350000D03*
X45720000Y-8075000D03*
%TD*%
D12*
%TO.C,C32*%
X13970000Y-27940000D03*
X18970000Y-27940000D03*
%TD*%
%TO.C,R8*%
X60960000Y-11430000D03*
D17*
X60960000Y-8890000D03*
%TD*%
D10*
%TO.C,RV8*%
X29225000Y-27940000D03*
X31765000Y-25400000D03*
X34305000Y-27940000D03*
%TD*%
D12*
%TO.C,C10*%
X28020000Y-60960000D03*
X33020000Y-60960000D03*
%TD*%
D10*
%TO.C,RV2*%
X74310000Y-11505000D03*
X76850000Y-8965000D03*
X79390000Y-11505000D03*
%TD*%
D12*
%TO.C,R17*%
X50800000Y-40640000D03*
D17*
X50800000Y-38100000D03*
%TD*%
D12*
%TO.C,C11*%
X33020000Y-50880000D03*
X33020000Y-55880000D03*
%TD*%
D29*
%TO.C,C12*%
X15240000Y-50800000D03*
D30*
X13740000Y-50800000D03*
%TD*%
D12*
%TO.C,C25*%
X10160000Y-5160000D03*
X10160000Y-10160000D03*
%TD*%
D19*
%TO.C,U9*%
X48260000Y-35560000D03*
D17*
X50800000Y-35560000D03*
X53340000Y-35560000D03*
X55880000Y-35560000D03*
X55880000Y-27940000D03*
X53340000Y-27940000D03*
X50800000Y-27940000D03*
X48260000Y-27940000D03*
%TD*%
D31*
%TO.C,U1*%
X43180000Y-53075000D03*
X44130000Y-53075000D03*
X45080000Y-53075000D03*
X45080000Y-50800000D03*
X44130000Y-50800000D03*
X43180000Y-50800000D03*
%TD*%
D12*
%TO.C,R14*%
X6350000Y-10160000D03*
D17*
X6350000Y-7620000D03*
%TD*%
D16*
%TO.C,C19*%
X26035000Y-35560000D03*
X22785000Y-35560000D03*
%TD*%
D12*
%TO.C,R10*%
X25400000Y-6350000D03*
D17*
X22860000Y-6350000D03*
%TD*%
D10*
%TO.C,RV3*%
X74310000Y-19125000D03*
X76850000Y-16585000D03*
X79390000Y-19125000D03*
%TD*%
D13*
%TO.C,J14*%
X2540000Y-25400000D03*
D14*
X2540000Y-27940000D03*
%TD*%
D12*
%TO.C,C28*%
X48180000Y-41275000D03*
X43180000Y-41275000D03*
%TD*%
D15*
%TO.C,C18*%
X41730000Y-20320000D03*
X40005000Y-20320000D03*
%TD*%
D19*
%TO.C,D1*%
X13970000Y-33020000D03*
D17*
X11430000Y-33020000D03*
%TD*%
D18*
%TO.C,C33*%
X62230000Y-27485000D03*
X62230000Y-29210000D03*
%TD*%
D10*
%TO.C,RV1*%
X10160000Y-58420000D03*
X12700000Y-55880000D03*
X15240000Y-58420000D03*
%TD*%
D12*
%TO.C,C35*%
X11430000Y-25400000D03*
X6430000Y-25400000D03*
%TD*%
D16*
%TO.C,C13*%
X26035000Y-15240000D03*
X22785000Y-15240000D03*
%TD*%
D13*
%TO.C,J12*%
X78740000Y-54356000D03*
D14*
X76200000Y-54356000D03*
%TD*%
D13*
%TO.C,J6*%
X78740000Y-58420000D03*
D14*
X76200000Y-58420000D03*
X78740000Y-60960000D03*
X76200000Y-60960000D03*
X78740000Y-63500000D03*
X76200000Y-63500000D03*
%TD*%
M02*
