%TF.GenerationSoftware,KiCad,Pcbnew,7.0.7*%
%TF.CreationDate,2023-11-02T14:39:43+09:00*%
%TF.ProjectId,tangnano20k-vectrex,74616e67-6e61-46e6-9f32-306b2d766563,rev?*%
%TF.SameCoordinates,Original*%
%TF.FileFunction,Copper,L2,Bot*%
%TF.FilePolarity,Positive*%
%FSLAX46Y46*%
G04 Gerber Fmt 4.6, Leading zero omitted, Abs format (unit mm)*
G04 Created by KiCad (PCBNEW 7.0.7) date 2023-11-02 14:39:43*
%MOMM*%
%LPD*%
G01*
G04 APERTURE LIST*
%ADD10C,0.300000*%
%TA.AperFunction,NonConductor*%
%ADD11C,0.300000*%
%TD*%
%TA.AperFunction,ComponentPad*%
%ADD12C,1.440000*%
%TD*%
%TA.AperFunction,ComponentPad*%
%ADD13C,1.600000*%
%TD*%
%TA.AperFunction,ComponentPad*%
%ADD14R,1.700000X1.700000*%
%TD*%
%TA.AperFunction,ComponentPad*%
%ADD15O,1.700000X1.700000*%
%TD*%
%TA.AperFunction,ComponentPad*%
%ADD16O,1.600000X1.600000*%
%TD*%
%TA.AperFunction,ComponentPad*%
%ADD17R,1.600000X1.600000*%
%TD*%
%TA.AperFunction,ComponentPad*%
%ADD18R,1.450000X1.450000*%
%TD*%
%TA.AperFunction,ComponentPad*%
%ADD19C,1.450000*%
%TD*%
%TA.AperFunction,ComponentPad*%
%ADD20R,7.874000X2.413000*%
%TD*%
%TA.AperFunction,ComponentPad*%
%ADD21R,1.200000X1.200000*%
%TD*%
%TA.AperFunction,ComponentPad*%
%ADD22C,1.200000*%
%TD*%
%TA.AperFunction,ViaPad*%
%ADD23C,0.800000*%
%TD*%
%TA.AperFunction,Conductor*%
%ADD24C,2.000000*%
%TD*%
%TA.AperFunction,Conductor*%
%ADD25C,1.500000*%
%TD*%
%TA.AperFunction,Conductor*%
%ADD26C,0.250000*%
%TD*%
%TA.AperFunction,Conductor*%
%ADD27C,1.000000*%
%TD*%
%TA.AperFunction,Conductor*%
%ADD28C,0.400000*%
%TD*%
G04 APERTURE END LIST*
D10*
D11*
X31500224Y-79322828D02*
X30643082Y-79322828D01*
X31071653Y-80822828D02*
X31071653Y-79322828D01*
X29500225Y-80822828D02*
X29500225Y-80037114D01*
X29500225Y-80037114D02*
X29571653Y-79894257D01*
X29571653Y-79894257D02*
X29714510Y-79822828D01*
X29714510Y-79822828D02*
X30000225Y-79822828D01*
X30000225Y-79822828D02*
X30143082Y-79894257D01*
X29500225Y-80751400D02*
X29643082Y-80822828D01*
X29643082Y-80822828D02*
X30000225Y-80822828D01*
X30000225Y-80822828D02*
X30143082Y-80751400D01*
X30143082Y-80751400D02*
X30214510Y-80608542D01*
X30214510Y-80608542D02*
X30214510Y-80465685D01*
X30214510Y-80465685D02*
X30143082Y-80322828D01*
X30143082Y-80322828D02*
X30000225Y-80251400D01*
X30000225Y-80251400D02*
X29643082Y-80251400D01*
X29643082Y-80251400D02*
X29500225Y-80179971D01*
X28785939Y-79822828D02*
X28785939Y-80822828D01*
X28785939Y-79965685D02*
X28714510Y-79894257D01*
X28714510Y-79894257D02*
X28571653Y-79822828D01*
X28571653Y-79822828D02*
X28357367Y-79822828D01*
X28357367Y-79822828D02*
X28214510Y-79894257D01*
X28214510Y-79894257D02*
X28143082Y-80037114D01*
X28143082Y-80037114D02*
X28143082Y-80822828D01*
X26785939Y-79822828D02*
X26785939Y-81037114D01*
X26785939Y-81037114D02*
X26857367Y-81179971D01*
X26857367Y-81179971D02*
X26928796Y-81251400D01*
X26928796Y-81251400D02*
X27071653Y-81322828D01*
X27071653Y-81322828D02*
X27285939Y-81322828D01*
X27285939Y-81322828D02*
X27428796Y-81251400D01*
X26785939Y-80751400D02*
X26928796Y-80822828D01*
X26928796Y-80822828D02*
X27214510Y-80822828D01*
X27214510Y-80822828D02*
X27357367Y-80751400D01*
X27357367Y-80751400D02*
X27428796Y-80679971D01*
X27428796Y-80679971D02*
X27500224Y-80537114D01*
X27500224Y-80537114D02*
X27500224Y-80108542D01*
X27500224Y-80108542D02*
X27428796Y-79965685D01*
X27428796Y-79965685D02*
X27357367Y-79894257D01*
X27357367Y-79894257D02*
X27214510Y-79822828D01*
X27214510Y-79822828D02*
X26928796Y-79822828D01*
X26928796Y-79822828D02*
X26785939Y-79894257D01*
X24928796Y-80822828D02*
X24928796Y-79322828D01*
X24928796Y-79322828D02*
X24071653Y-80822828D01*
X24071653Y-80822828D02*
X24071653Y-79322828D01*
X22714510Y-80822828D02*
X22714510Y-80037114D01*
X22714510Y-80037114D02*
X22785938Y-79894257D01*
X22785938Y-79894257D02*
X22928795Y-79822828D01*
X22928795Y-79822828D02*
X23214510Y-79822828D01*
X23214510Y-79822828D02*
X23357367Y-79894257D01*
X22714510Y-80751400D02*
X22857367Y-80822828D01*
X22857367Y-80822828D02*
X23214510Y-80822828D01*
X23214510Y-80822828D02*
X23357367Y-80751400D01*
X23357367Y-80751400D02*
X23428795Y-80608542D01*
X23428795Y-80608542D02*
X23428795Y-80465685D01*
X23428795Y-80465685D02*
X23357367Y-80322828D01*
X23357367Y-80322828D02*
X23214510Y-80251400D01*
X23214510Y-80251400D02*
X22857367Y-80251400D01*
X22857367Y-80251400D02*
X22714510Y-80179971D01*
X22000224Y-79822828D02*
X22000224Y-80822828D01*
X22000224Y-79965685D02*
X21928795Y-79894257D01*
X21928795Y-79894257D02*
X21785938Y-79822828D01*
X21785938Y-79822828D02*
X21571652Y-79822828D01*
X21571652Y-79822828D02*
X21428795Y-79894257D01*
X21428795Y-79894257D02*
X21357367Y-80037114D01*
X21357367Y-80037114D02*
X21357367Y-80822828D01*
X20428795Y-80822828D02*
X20571652Y-80751400D01*
X20571652Y-80751400D02*
X20643081Y-80679971D01*
X20643081Y-80679971D02*
X20714509Y-80537114D01*
X20714509Y-80537114D02*
X20714509Y-80108542D01*
X20714509Y-80108542D02*
X20643081Y-79965685D01*
X20643081Y-79965685D02*
X20571652Y-79894257D01*
X20571652Y-79894257D02*
X20428795Y-79822828D01*
X20428795Y-79822828D02*
X20214509Y-79822828D01*
X20214509Y-79822828D02*
X20071652Y-79894257D01*
X20071652Y-79894257D02*
X20000224Y-79965685D01*
X20000224Y-79965685D02*
X19928795Y-80108542D01*
X19928795Y-80108542D02*
X19928795Y-80537114D01*
X19928795Y-80537114D02*
X20000224Y-80679971D01*
X20000224Y-80679971D02*
X20071652Y-80751400D01*
X20071652Y-80751400D02*
X20214509Y-80822828D01*
X20214509Y-80822828D02*
X20428795Y-80822828D01*
X18357366Y-79322828D02*
X17857366Y-80822828D01*
X17857366Y-80822828D02*
X17357366Y-79322828D01*
X16285938Y-80751400D02*
X16428795Y-80822828D01*
X16428795Y-80822828D02*
X16714510Y-80822828D01*
X16714510Y-80822828D02*
X16857367Y-80751400D01*
X16857367Y-80751400D02*
X16928795Y-80608542D01*
X16928795Y-80608542D02*
X16928795Y-80037114D01*
X16928795Y-80037114D02*
X16857367Y-79894257D01*
X16857367Y-79894257D02*
X16714510Y-79822828D01*
X16714510Y-79822828D02*
X16428795Y-79822828D01*
X16428795Y-79822828D02*
X16285938Y-79894257D01*
X16285938Y-79894257D02*
X16214510Y-80037114D01*
X16214510Y-80037114D02*
X16214510Y-80179971D01*
X16214510Y-80179971D02*
X16928795Y-80322828D01*
X14928796Y-80751400D02*
X15071653Y-80822828D01*
X15071653Y-80822828D02*
X15357367Y-80822828D01*
X15357367Y-80822828D02*
X15500224Y-80751400D01*
X15500224Y-80751400D02*
X15571653Y-80679971D01*
X15571653Y-80679971D02*
X15643081Y-80537114D01*
X15643081Y-80537114D02*
X15643081Y-80108542D01*
X15643081Y-80108542D02*
X15571653Y-79965685D01*
X15571653Y-79965685D02*
X15500224Y-79894257D01*
X15500224Y-79894257D02*
X15357367Y-79822828D01*
X15357367Y-79822828D02*
X15071653Y-79822828D01*
X15071653Y-79822828D02*
X14928796Y-79894257D01*
X14500224Y-79822828D02*
X13928796Y-79822828D01*
X14285939Y-79322828D02*
X14285939Y-80608542D01*
X14285939Y-80608542D02*
X14214510Y-80751400D01*
X14214510Y-80751400D02*
X14071653Y-80822828D01*
X14071653Y-80822828D02*
X13928796Y-80822828D01*
X13428796Y-80822828D02*
X13428796Y-79822828D01*
X13428796Y-80108542D02*
X13357367Y-79965685D01*
X13357367Y-79965685D02*
X13285939Y-79894257D01*
X13285939Y-79894257D02*
X13143081Y-79822828D01*
X13143081Y-79822828D02*
X13000224Y-79822828D01*
X11928796Y-80751400D02*
X12071653Y-80822828D01*
X12071653Y-80822828D02*
X12357368Y-80822828D01*
X12357368Y-80822828D02*
X12500225Y-80751400D01*
X12500225Y-80751400D02*
X12571653Y-80608542D01*
X12571653Y-80608542D02*
X12571653Y-80037114D01*
X12571653Y-80037114D02*
X12500225Y-79894257D01*
X12500225Y-79894257D02*
X12357368Y-79822828D01*
X12357368Y-79822828D02*
X12071653Y-79822828D01*
X12071653Y-79822828D02*
X11928796Y-79894257D01*
X11928796Y-79894257D02*
X11857368Y-80037114D01*
X11857368Y-80037114D02*
X11857368Y-80179971D01*
X11857368Y-80179971D02*
X12571653Y-80322828D01*
X11357368Y-80822828D02*
X10571654Y-79822828D01*
X11357368Y-79822828D02*
X10571654Y-80822828D01*
X17643081Y-83237828D02*
X17643081Y-82237828D01*
X17643081Y-82523542D02*
X17571652Y-82380685D01*
X17571652Y-82380685D02*
X17500224Y-82309257D01*
X17500224Y-82309257D02*
X17357366Y-82237828D01*
X17357366Y-82237828D02*
X17214509Y-82237828D01*
X16143081Y-83166400D02*
X16285938Y-83237828D01*
X16285938Y-83237828D02*
X16571653Y-83237828D01*
X16571653Y-83237828D02*
X16714510Y-83166400D01*
X16714510Y-83166400D02*
X16785938Y-83023542D01*
X16785938Y-83023542D02*
X16785938Y-82452114D01*
X16785938Y-82452114D02*
X16714510Y-82309257D01*
X16714510Y-82309257D02*
X16571653Y-82237828D01*
X16571653Y-82237828D02*
X16285938Y-82237828D01*
X16285938Y-82237828D02*
X16143081Y-82309257D01*
X16143081Y-82309257D02*
X16071653Y-82452114D01*
X16071653Y-82452114D02*
X16071653Y-82594971D01*
X16071653Y-82594971D02*
X16785938Y-82737828D01*
X15571653Y-82237828D02*
X15214510Y-83237828D01*
X15214510Y-83237828D02*
X14857367Y-82237828D01*
X14285939Y-83094971D02*
X14214510Y-83166400D01*
X14214510Y-83166400D02*
X14285939Y-83237828D01*
X14285939Y-83237828D02*
X14357367Y-83166400D01*
X14357367Y-83166400D02*
X14285939Y-83094971D01*
X14285939Y-83094971D02*
X14285939Y-83237828D01*
X13285938Y-81737828D02*
X13143081Y-81737828D01*
X13143081Y-81737828D02*
X13000224Y-81809257D01*
X13000224Y-81809257D02*
X12928796Y-81880685D01*
X12928796Y-81880685D02*
X12857367Y-82023542D01*
X12857367Y-82023542D02*
X12785938Y-82309257D01*
X12785938Y-82309257D02*
X12785938Y-82666400D01*
X12785938Y-82666400D02*
X12857367Y-82952114D01*
X12857367Y-82952114D02*
X12928796Y-83094971D01*
X12928796Y-83094971D02*
X13000224Y-83166400D01*
X13000224Y-83166400D02*
X13143081Y-83237828D01*
X13143081Y-83237828D02*
X13285938Y-83237828D01*
X13285938Y-83237828D02*
X13428796Y-83166400D01*
X13428796Y-83166400D02*
X13500224Y-83094971D01*
X13500224Y-83094971D02*
X13571653Y-82952114D01*
X13571653Y-82952114D02*
X13643081Y-82666400D01*
X13643081Y-82666400D02*
X13643081Y-82309257D01*
X13643081Y-82309257D02*
X13571653Y-82023542D01*
X13571653Y-82023542D02*
X13500224Y-81880685D01*
X13500224Y-81880685D02*
X13428796Y-81809257D01*
X13428796Y-81809257D02*
X13285938Y-81737828D01*
X12143082Y-83094971D02*
X12071653Y-83166400D01*
X12071653Y-83166400D02*
X12143082Y-83237828D01*
X12143082Y-83237828D02*
X12214510Y-83166400D01*
X12214510Y-83166400D02*
X12143082Y-83094971D01*
X12143082Y-83094971D02*
X12143082Y-83237828D01*
X11571653Y-81737828D02*
X10643081Y-81737828D01*
X10643081Y-81737828D02*
X11143081Y-82309257D01*
X11143081Y-82309257D02*
X10928796Y-82309257D01*
X10928796Y-82309257D02*
X10785939Y-82380685D01*
X10785939Y-82380685D02*
X10714510Y-82452114D01*
X10714510Y-82452114D02*
X10643081Y-82594971D01*
X10643081Y-82594971D02*
X10643081Y-82952114D01*
X10643081Y-82952114D02*
X10714510Y-83094971D01*
X10714510Y-83094971D02*
X10785939Y-83166400D01*
X10785939Y-83166400D02*
X10928796Y-83237828D01*
X10928796Y-83237828D02*
X11357367Y-83237828D01*
X11357367Y-83237828D02*
X11500224Y-83166400D01*
X11500224Y-83166400D02*
X11571653Y-83094971D01*
X36357369Y-85652828D02*
X36357369Y-84152828D01*
X36357369Y-84152828D02*
X36000226Y-84152828D01*
X36000226Y-84152828D02*
X35785940Y-84224257D01*
X35785940Y-84224257D02*
X35643083Y-84367114D01*
X35643083Y-84367114D02*
X35571654Y-84509971D01*
X35571654Y-84509971D02*
X35500226Y-84795685D01*
X35500226Y-84795685D02*
X35500226Y-85009971D01*
X35500226Y-85009971D02*
X35571654Y-85295685D01*
X35571654Y-85295685D02*
X35643083Y-85438542D01*
X35643083Y-85438542D02*
X35785940Y-85581400D01*
X35785940Y-85581400D02*
X36000226Y-85652828D01*
X36000226Y-85652828D02*
X36357369Y-85652828D01*
X34285940Y-85581400D02*
X34428797Y-85652828D01*
X34428797Y-85652828D02*
X34714512Y-85652828D01*
X34714512Y-85652828D02*
X34857369Y-85581400D01*
X34857369Y-85581400D02*
X34928797Y-85438542D01*
X34928797Y-85438542D02*
X34928797Y-84867114D01*
X34928797Y-84867114D02*
X34857369Y-84724257D01*
X34857369Y-84724257D02*
X34714512Y-84652828D01*
X34714512Y-84652828D02*
X34428797Y-84652828D01*
X34428797Y-84652828D02*
X34285940Y-84724257D01*
X34285940Y-84724257D02*
X34214512Y-84867114D01*
X34214512Y-84867114D02*
X34214512Y-85009971D01*
X34214512Y-85009971D02*
X34928797Y-85152828D01*
X33643083Y-85581400D02*
X33500226Y-85652828D01*
X33500226Y-85652828D02*
X33214512Y-85652828D01*
X33214512Y-85652828D02*
X33071655Y-85581400D01*
X33071655Y-85581400D02*
X33000226Y-85438542D01*
X33000226Y-85438542D02*
X33000226Y-85367114D01*
X33000226Y-85367114D02*
X33071655Y-85224257D01*
X33071655Y-85224257D02*
X33214512Y-85152828D01*
X33214512Y-85152828D02*
X33428798Y-85152828D01*
X33428798Y-85152828D02*
X33571655Y-85081400D01*
X33571655Y-85081400D02*
X33643083Y-84938542D01*
X33643083Y-84938542D02*
X33643083Y-84867114D01*
X33643083Y-84867114D02*
X33571655Y-84724257D01*
X33571655Y-84724257D02*
X33428798Y-84652828D01*
X33428798Y-84652828D02*
X33214512Y-84652828D01*
X33214512Y-84652828D02*
X33071655Y-84724257D01*
X32357369Y-85652828D02*
X32357369Y-84652828D01*
X32357369Y-84152828D02*
X32428797Y-84224257D01*
X32428797Y-84224257D02*
X32357369Y-84295685D01*
X32357369Y-84295685D02*
X32285940Y-84224257D01*
X32285940Y-84224257D02*
X32357369Y-84152828D01*
X32357369Y-84152828D02*
X32357369Y-84295685D01*
X31000226Y-84652828D02*
X31000226Y-85867114D01*
X31000226Y-85867114D02*
X31071654Y-86009971D01*
X31071654Y-86009971D02*
X31143083Y-86081400D01*
X31143083Y-86081400D02*
X31285940Y-86152828D01*
X31285940Y-86152828D02*
X31500226Y-86152828D01*
X31500226Y-86152828D02*
X31643083Y-86081400D01*
X31000226Y-85581400D02*
X31143083Y-85652828D01*
X31143083Y-85652828D02*
X31428797Y-85652828D01*
X31428797Y-85652828D02*
X31571654Y-85581400D01*
X31571654Y-85581400D02*
X31643083Y-85509971D01*
X31643083Y-85509971D02*
X31714511Y-85367114D01*
X31714511Y-85367114D02*
X31714511Y-84938542D01*
X31714511Y-84938542D02*
X31643083Y-84795685D01*
X31643083Y-84795685D02*
X31571654Y-84724257D01*
X31571654Y-84724257D02*
X31428797Y-84652828D01*
X31428797Y-84652828D02*
X31143083Y-84652828D01*
X31143083Y-84652828D02*
X31000226Y-84724257D01*
X30285940Y-84652828D02*
X30285940Y-85652828D01*
X30285940Y-84795685D02*
X30214511Y-84724257D01*
X30214511Y-84724257D02*
X30071654Y-84652828D01*
X30071654Y-84652828D02*
X29857368Y-84652828D01*
X29857368Y-84652828D02*
X29714511Y-84724257D01*
X29714511Y-84724257D02*
X29643083Y-84867114D01*
X29643083Y-84867114D02*
X29643083Y-85652828D01*
X28357368Y-85581400D02*
X28500225Y-85652828D01*
X28500225Y-85652828D02*
X28785940Y-85652828D01*
X28785940Y-85652828D02*
X28928797Y-85581400D01*
X28928797Y-85581400D02*
X29000225Y-85438542D01*
X29000225Y-85438542D02*
X29000225Y-84867114D01*
X29000225Y-84867114D02*
X28928797Y-84724257D01*
X28928797Y-84724257D02*
X28785940Y-84652828D01*
X28785940Y-84652828D02*
X28500225Y-84652828D01*
X28500225Y-84652828D02*
X28357368Y-84724257D01*
X28357368Y-84724257D02*
X28285940Y-84867114D01*
X28285940Y-84867114D02*
X28285940Y-85009971D01*
X28285940Y-85009971D02*
X29000225Y-85152828D01*
X27000226Y-85652828D02*
X27000226Y-84152828D01*
X27000226Y-85581400D02*
X27143083Y-85652828D01*
X27143083Y-85652828D02*
X27428797Y-85652828D01*
X27428797Y-85652828D02*
X27571654Y-85581400D01*
X27571654Y-85581400D02*
X27643083Y-85509971D01*
X27643083Y-85509971D02*
X27714511Y-85367114D01*
X27714511Y-85367114D02*
X27714511Y-84938542D01*
X27714511Y-84938542D02*
X27643083Y-84795685D01*
X27643083Y-84795685D02*
X27571654Y-84724257D01*
X27571654Y-84724257D02*
X27428797Y-84652828D01*
X27428797Y-84652828D02*
X27143083Y-84652828D01*
X27143083Y-84652828D02*
X27000226Y-84724257D01*
X25143083Y-85652828D02*
X25143083Y-84152828D01*
X25143083Y-84724257D02*
X25000226Y-84652828D01*
X25000226Y-84652828D02*
X24714511Y-84652828D01*
X24714511Y-84652828D02*
X24571654Y-84724257D01*
X24571654Y-84724257D02*
X24500226Y-84795685D01*
X24500226Y-84795685D02*
X24428797Y-84938542D01*
X24428797Y-84938542D02*
X24428797Y-85367114D01*
X24428797Y-85367114D02*
X24500226Y-85509971D01*
X24500226Y-85509971D02*
X24571654Y-85581400D01*
X24571654Y-85581400D02*
X24714511Y-85652828D01*
X24714511Y-85652828D02*
X25000226Y-85652828D01*
X25000226Y-85652828D02*
X25143083Y-85581400D01*
X23928797Y-84652828D02*
X23571654Y-85652828D01*
X23214511Y-84652828D02*
X23571654Y-85652828D01*
X23571654Y-85652828D02*
X23714511Y-86009971D01*
X23714511Y-86009971D02*
X23785940Y-86081400D01*
X23785940Y-86081400D02*
X23928797Y-86152828D01*
X20643083Y-85652828D02*
X21143083Y-84938542D01*
X21500226Y-85652828D02*
X21500226Y-84152828D01*
X21500226Y-84152828D02*
X20928797Y-84152828D01*
X20928797Y-84152828D02*
X20785940Y-84224257D01*
X20785940Y-84224257D02*
X20714511Y-84295685D01*
X20714511Y-84295685D02*
X20643083Y-84438542D01*
X20643083Y-84438542D02*
X20643083Y-84652828D01*
X20643083Y-84652828D02*
X20714511Y-84795685D01*
X20714511Y-84795685D02*
X20785940Y-84867114D01*
X20785940Y-84867114D02*
X20928797Y-84938542D01*
X20928797Y-84938542D02*
X21500226Y-84938542D01*
X20143083Y-84652828D02*
X19785940Y-85652828D01*
X19428797Y-84652828D02*
X19785940Y-85652828D01*
X19785940Y-85652828D02*
X19928797Y-86009971D01*
X19928797Y-86009971D02*
X20000226Y-86081400D01*
X20000226Y-86081400D02*
X20143083Y-86152828D01*
X18643083Y-85652828D02*
X18785940Y-85581400D01*
X18785940Y-85581400D02*
X18857369Y-85509971D01*
X18857369Y-85509971D02*
X18928797Y-85367114D01*
X18928797Y-85367114D02*
X18928797Y-84938542D01*
X18928797Y-84938542D02*
X18857369Y-84795685D01*
X18857369Y-84795685D02*
X18785940Y-84724257D01*
X18785940Y-84724257D02*
X18643083Y-84652828D01*
X18643083Y-84652828D02*
X18428797Y-84652828D01*
X18428797Y-84652828D02*
X18285940Y-84724257D01*
X18285940Y-84724257D02*
X18214512Y-84795685D01*
X18214512Y-84795685D02*
X18143083Y-84938542D01*
X18143083Y-84938542D02*
X18143083Y-85367114D01*
X18143083Y-85367114D02*
X18214512Y-85509971D01*
X18214512Y-85509971D02*
X18285940Y-85581400D01*
X18285940Y-85581400D02*
X18428797Y-85652828D01*
X18428797Y-85652828D02*
X18643083Y-85652828D01*
X16357369Y-85652828D02*
X16357369Y-84152828D01*
X16357369Y-84152828D02*
X15857369Y-85224257D01*
X15857369Y-85224257D02*
X15357369Y-84152828D01*
X15357369Y-84152828D02*
X15357369Y-85652828D01*
X14000226Y-84652828D02*
X14000226Y-85652828D01*
X14643083Y-84652828D02*
X14643083Y-85438542D01*
X14643083Y-85438542D02*
X14571654Y-85581400D01*
X14571654Y-85581400D02*
X14428797Y-85652828D01*
X14428797Y-85652828D02*
X14214511Y-85652828D01*
X14214511Y-85652828D02*
X14071654Y-85581400D01*
X14071654Y-85581400D02*
X14000226Y-85509971D01*
X13285940Y-85652828D02*
X13285940Y-84152828D01*
X13143083Y-85081400D02*
X12714511Y-85652828D01*
X12714511Y-84652828D02*
X13285940Y-85224257D01*
X11428797Y-85652828D02*
X11428797Y-84867114D01*
X11428797Y-84867114D02*
X11500225Y-84724257D01*
X11500225Y-84724257D02*
X11643082Y-84652828D01*
X11643082Y-84652828D02*
X11928797Y-84652828D01*
X11928797Y-84652828D02*
X12071654Y-84724257D01*
X11428797Y-85581400D02*
X11571654Y-85652828D01*
X11571654Y-85652828D02*
X11928797Y-85652828D01*
X11928797Y-85652828D02*
X12071654Y-85581400D01*
X12071654Y-85581400D02*
X12143082Y-85438542D01*
X12143082Y-85438542D02*
X12143082Y-85295685D01*
X12143082Y-85295685D02*
X12071654Y-85152828D01*
X12071654Y-85152828D02*
X11928797Y-85081400D01*
X11928797Y-85081400D02*
X11571654Y-85081400D01*
X11571654Y-85081400D02*
X11428797Y-85009971D01*
X10714511Y-85652828D02*
X10714511Y-84652828D01*
X10714511Y-84152828D02*
X10785939Y-84224257D01*
X10785939Y-84224257D02*
X10714511Y-84295685D01*
X10714511Y-84295685D02*
X10643082Y-84224257D01*
X10643082Y-84224257D02*
X10714511Y-84152828D01*
X10714511Y-84152828D02*
X10714511Y-84295685D01*
D12*
%TO.P,RV13,1,1*%
%TO.N,Net-(D1-K)*%
X20320000Y-41910000D03*
%TO.P,RV13,2,2*%
X22860000Y-39370000D03*
%TO.P,RV13,3,3*%
%TO.N,Net-(R22-Pad1)*%
X25400000Y-41910000D03*
%TD*%
D13*
%TO.P,C26,1*%
%TO.N,Net-(C26-Pad1)*%
X10160000Y-15320000D03*
%TO.P,C26,2*%
%TO.N,Net-(J9-Pin_2)*%
X10160000Y-20320000D03*
%TD*%
D14*
%TO.P,J4,1,Pin_1*%
%TO.N,+5V*%
X78740000Y-48260000D03*
D15*
%TO.P,J4,2,Pin_2*%
%TO.N,GND*%
X78740000Y-50800000D03*
%TD*%
D13*
%TO.P,R25,1*%
%TO.N,-15V*%
X59690000Y-33020000D03*
D16*
%TO.P,R25,2*%
%TO.N,GND*%
X59690000Y-30480000D03*
%TD*%
D13*
%TO.P,R18,1*%
%TO.N,beam_z0*%
X62230000Y-35560000D03*
D16*
%TO.P,R18,2*%
%TO.N,Net-(U9A--)*%
X59690000Y-35560000D03*
%TD*%
D14*
%TO.P,J11,1,Pin_1*%
%TO.N,+5V*%
X78740000Y-36830000D03*
D15*
%TO.P,J11,2,Pin_2*%
%TO.N,GND*%
X76200000Y-36830000D03*
%TD*%
D17*
%TO.P,U6,1*%
%TO.N,Net-(U8B-+)*%
X48260000Y-13970000D03*
D16*
%TO.P,U6,2,-*%
%TO.N,Net-(U6A--)*%
X50800000Y-13970000D03*
%TO.P,U6,3,+*%
%TO.N,Net-(U6A-+)*%
X53340000Y-13970000D03*
%TO.P,U6,4,V-*%
%TO.N,-5VA*%
X55880000Y-13970000D03*
%TO.P,U6,5,+*%
%TO.N,Net-(U6B-+)*%
X55880000Y-6350000D03*
%TO.P,U6,6,-*%
%TO.N,Net-(U6B--)*%
X53340000Y-6350000D03*
%TO.P,U6,7*%
%TO.N,Net-(U7B-+)*%
X50800000Y-6350000D03*
%TO.P,U6,8,V+*%
%TO.N,+5VA*%
X48260000Y-6350000D03*
%TD*%
D13*
%TO.P,R4,1*%
%TO.N,+5VA*%
X81930000Y-11505000D03*
D16*
%TO.P,R4,2*%
%TO.N,Net-(R4-Pad2)*%
X81930000Y-8965000D03*
%TD*%
D18*
%TO.P,PS1,1,+VIN*%
%TO.N,+5V*%
X65405000Y-41910000D03*
D19*
%TO.P,PS1,2,-VIN*%
%TO.N,GND*%
X65405000Y-39370000D03*
%TO.P,PS1,4,-VOUT*%
%TO.N,-15V*%
X65405000Y-34290000D03*
%TO.P,PS1,5,COM*%
%TO.N,GND*%
X65405000Y-31750000D03*
%TO.P,PS1,6,+VOUT*%
%TO.N,+15V*%
X65405000Y-29210000D03*
%TD*%
D12*
%TO.P,RV7,1,1*%
%TO.N,Net-(U7B--)*%
X36830000Y-5155000D03*
%TO.P,RV7,2,2*%
%TO.N,Net-(J8-Pin_2)*%
X39370000Y-2615000D03*
%TO.P,RV7,3,3*%
X41910000Y-5155000D03*
%TD*%
D13*
%TO.P,R23,1*%
%TO.N,Net-(U10-Q)*%
X8890000Y-30480000D03*
D16*
%TO.P,R23,2*%
%TO.N,Net-(J13-Pin_1)*%
X6350000Y-30480000D03*
%TD*%
D14*
%TO.P,J7,1,Pin_1*%
%TO.N,beam_x0*%
X78740000Y-33020000D03*
D15*
%TO.P,J7,2,Pin_2*%
%TO.N,GND*%
X76200000Y-33020000D03*
%TO.P,J7,3,Pin_3*%
%TO.N,beam_y0*%
X78740000Y-30480000D03*
%TO.P,J7,4,Pin_4*%
%TO.N,GND*%
X76200000Y-30480000D03*
%TO.P,J7,5,Pin_5*%
%TO.N,beam_z0*%
X78740000Y-27940000D03*
%TO.P,J7,6,Pin_6*%
%TO.N,GND*%
X76200000Y-27940000D03*
%TD*%
D12*
%TO.P,RV12,1,1*%
%TO.N,Net-(R17-Pad2)*%
X53355000Y-40715000D03*
%TO.P,RV12,2,2*%
%TO.N,Net-(U9A-+)*%
X55895000Y-38175000D03*
%TO.P,RV12,3,3*%
%TO.N,Net-(R16-Pad2)*%
X58435000Y-40715000D03*
%TD*%
D14*
%TO.P,J2,1,Pin_1*%
%TO.N,unconnected-(J2-Pin_1-Pad1)*%
X2540000Y-88900000D03*
D15*
%TO.P,J2,2,Pin_2*%
%TO.N,unconnected-(J2-Pin_2-Pad2)*%
X5080000Y-88900000D03*
%TO.P,J2,3,Pin_3*%
%TO.N,unconnected-(J2-Pin_3-Pad3)*%
X7620000Y-88900000D03*
%TO.P,J2,4,Pin_4*%
%TO.N,unconnected-(J2-Pin_4-Pad4)*%
X10160000Y-88900000D03*
%TO.P,J2,5,Pin_5*%
%TO.N,unconnected-(J2-Pin_5-Pad5)*%
X12700000Y-88900000D03*
%TO.P,J2,6,Pin_6*%
%TO.N,unconnected-(J2-Pin_6-Pad6)*%
X15240000Y-88900000D03*
%TO.P,J2,7,Pin_7*%
%TO.N,unconnected-(J2-Pin_7-Pad7)*%
X17780000Y-88900000D03*
%TO.P,J2,8,Pin_8*%
%TO.N,unconnected-(J2-Pin_8-Pad8)*%
X20320000Y-88900000D03*
%TO.P,J2,9,Pin_9*%
%TO.N,unconnected-(J2-Pin_9-Pad9)*%
X22860000Y-88900000D03*
%TO.P,J2,10,Pin_10*%
%TO.N,unconnected-(J2-Pin_10-Pad10)*%
X25400000Y-88900000D03*
%TO.P,J2,11,Pin_11*%
%TO.N,unconnected-(J2-Pin_11-Pad11)*%
X27940000Y-88900000D03*
%TO.P,J2,12,Pin_12*%
%TO.N,unconnected-(J2-Pin_12-Pad12)*%
X30480000Y-88900000D03*
%TO.P,J2,13,Pin_13*%
%TO.N,unconnected-(J2-Pin_13-Pad13)*%
X33020000Y-88900000D03*
%TO.P,J2,14,Pin_14*%
%TO.N,unconnected-(J2-Pin_14-Pad14)*%
X35560000Y-88900000D03*
%TO.P,J2,15,Pin_15*%
%TO.N,unconnected-(J2-Pin_15-Pad15)*%
X38100000Y-88900000D03*
%TO.P,J2,16,Pin_16*%
%TO.N,unconnected-(J2-Pin_16-Pad16)*%
X40640000Y-88900000D03*
%TO.P,J2,17,Pin_17*%
%TO.N,unconnected-(J2-Pin_17-Pad17)*%
X43180000Y-88900000D03*
%TO.P,J2,18,Pin_18*%
%TO.N,unconnected-(J2-Pin_18-Pad18)*%
X45720000Y-88900000D03*
%TO.P,J2,19,Pin_19*%
%TO.N,+3.3V*%
X48260000Y-88900000D03*
%TO.P,J2,20,Pin_20*%
%TO.N,GND*%
X50800000Y-88900000D03*
%TD*%
D13*
%TO.P,C27,1*%
%TO.N,Net-(U10-CV)*%
X13970000Y-25480000D03*
%TO.P,C27,2*%
%TO.N,GND*%
X18970000Y-25480000D03*
%TD*%
%TO.P,R24,1*%
%TO.N,GND*%
X59690000Y-27940000D03*
D16*
%TO.P,R24,2*%
%TO.N,+15V*%
X59690000Y-25400000D03*
%TD*%
D20*
%TO.P,U8,*%
%TO.N,*%
X33147000Y-36830000D03*
D17*
%TO.P,U8,1*%
%TO.N,Net-(U8A--)*%
X29210000Y-40640000D03*
D16*
%TO.P,U8,2,-*%
X31750000Y-40640000D03*
%TO.P,U8,3,+*%
%TO.N,Net-(U8A-+)*%
X34290000Y-40640000D03*
%TO.P,U8,4,V-*%
%TO.N,-5VA*%
X36830000Y-40640000D03*
%TO.P,U8,5,+*%
%TO.N,Net-(U8B-+)*%
X36830000Y-33020000D03*
%TO.P,U8,6,-*%
%TO.N,Net-(U8B--)*%
X34290000Y-33020000D03*
%TO.P,U8,7*%
%TO.N,Net-(U8A-+)*%
X31750000Y-33020000D03*
%TO.P,U8,8,V+*%
%TO.N,+5VA*%
X29210000Y-33020000D03*
%TD*%
D13*
%TO.P,C16,1*%
%TO.N,Net-(U6A-+)*%
X53340000Y-16510000D03*
%TO.P,C16,2*%
%TO.N,GND*%
X48340000Y-16510000D03*
%TD*%
D14*
%TO.P,J1,1,Pin_1*%
%TO.N,GND*%
X73660000Y-68580000D03*
D15*
%TO.P,J1,2,Pin_2*%
%TO.N,+3.3V*%
X73660000Y-71120000D03*
%TO.P,J1,3,Pin_3*%
%TO.N,joystick_cs2*%
X73660000Y-73660000D03*
%TO.P,J1,4,Pin_4*%
%TO.N,joystick_miso2*%
X73660000Y-76200000D03*
%TO.P,J1,5,Pin_5*%
%TO.N,joystick_mosi2*%
X73660000Y-78740000D03*
%TO.P,J1,6,Pin_6*%
%TO.N,joystick_clk2*%
X73660000Y-81280000D03*
%TD*%
D13*
%TO.P,R12,1*%
%TO.N,Net-(U8A-+)*%
X25400000Y-25400000D03*
D16*
%TO.P,R12,2*%
%TO.N,Net-(J9-Pin_1)*%
X22860000Y-25400000D03*
%TD*%
D13*
%TO.P,R26,1*%
%TO.N,Net-(C35-Pad2)*%
X8890000Y-27940000D03*
D16*
%TO.P,R26,2*%
%TO.N,Net-(J14-Pin_1)*%
X6350000Y-27940000D03*
%TD*%
D13*
%TO.P,R9,1*%
%TO.N,beam_y0*%
X60960000Y-19050000D03*
D16*
%TO.P,R9,2*%
%TO.N,Net-(U6A--)*%
X60960000Y-16510000D03*
%TD*%
D13*
%TO.P,R7,1*%
%TO.N,-5VA*%
X71755000Y-16510000D03*
D16*
%TO.P,R7,2*%
%TO.N,Net-(R7-Pad2)*%
X71755000Y-19050000D03*
%TD*%
D12*
%TO.P,RV9,1,1*%
%TO.N,Net-(U8B--)*%
X36845000Y-27940000D03*
%TO.P,RV9,2,2*%
%TO.N,Net-(J9-Pin_2)*%
X39385000Y-25400000D03*
%TO.P,RV9,3,3*%
X41925000Y-27940000D03*
%TD*%
%TO.P,RV6,1,1*%
%TO.N,Net-(U7B--)*%
X29210000Y-5155000D03*
%TO.P,RV6,2,2*%
%TO.N,Net-(J8-Pin_1)*%
X31750000Y-2615000D03*
%TO.P,RV6,3,3*%
X34290000Y-5155000D03*
%TD*%
D14*
%TO.P,J5,1,Pin_1*%
%TO.N,Net-(J5-Pin_1)*%
X50800000Y-50800000D03*
D15*
%TO.P,J5,2,Pin_2*%
%TO.N,Vref*%
X50800000Y-53340000D03*
%TO.P,J5,3,Pin_3*%
%TO.N,Net-(J5-Pin_3)*%
X50800000Y-55880000D03*
%TD*%
D14*
%TO.P,J8,1,Pin_1*%
%TO.N,Net-(J8-Pin_1)*%
X2540000Y-5080000D03*
D15*
%TO.P,J8,2,Pin_2*%
%TO.N,Net-(J8-Pin_2)*%
X2540000Y-7620000D03*
%TD*%
D13*
%TO.P,FB1,1*%
%TO.N,+5V*%
X72136000Y-32512000D03*
D16*
%TO.P,FB1,2*%
%TO.N,+5VA*%
X72136000Y-29972000D03*
%TD*%
D13*
%TO.P,R15,1*%
%TO.N,GND*%
X6350000Y-20320000D03*
D16*
%TO.P,R15,2*%
%TO.N,Net-(J9-Pin_2)*%
X6350000Y-17780000D03*
%TD*%
D14*
%TO.P,J13,1,Pin_1*%
%TO.N,Net-(J13-Pin_1)*%
X2540000Y-33020000D03*
D15*
%TO.P,J13,2,Pin_2*%
%TO.N,GND*%
X2540000Y-35560000D03*
%TD*%
D20*
%TO.P,U7,*%
%TO.N,*%
X33147000Y-16510000D03*
D17*
%TO.P,U7,1*%
%TO.N,Net-(U7A--)*%
X29210000Y-20320000D03*
D16*
%TO.P,U7,2,-*%
X31750000Y-20320000D03*
%TO.P,U7,3,+*%
%TO.N,Net-(U7A-+)*%
X34290000Y-20320000D03*
%TO.P,U7,4,V-*%
%TO.N,-5VA*%
X36830000Y-20320000D03*
%TO.P,U7,5,+*%
%TO.N,Net-(U7B-+)*%
X36830000Y-12700000D03*
%TO.P,U7,6,-*%
%TO.N,Net-(U7B--)*%
X34290000Y-12700000D03*
%TO.P,U7,7*%
%TO.N,Net-(U7A-+)*%
X31750000Y-12700000D03*
%TO.P,U7,8,V+*%
%TO.N,+5VA*%
X29210000Y-12700000D03*
%TD*%
D17*
%TO.P,U4,1,Vdd*%
%TO.N,+3.3V*%
X59690000Y-86360000D03*
D16*
%TO.P,U4,2,~{CS}*%
%TO.N,dac_cs_n*%
X62230000Y-86360000D03*
%TO.P,U4,3,SCK*%
%TO.N,dac_clk*%
X64770000Y-86360000D03*
%TO.P,U4,4,SDI*%
%TO.N,dac_sd2*%
X67310000Y-86360000D03*
%TO.P,U4,5,~{LDAC}*%
%TO.N,dac_ld_n*%
X67310000Y-78740000D03*
%TO.P,U4,6,Vref*%
%TO.N,Vref*%
X64770000Y-78740000D03*
%TO.P,U4,7,Vss*%
%TO.N,GND*%
X62230000Y-78740000D03*
%TO.P,U4,8,Vout*%
%TO.N,beam_z*%
X59690000Y-78740000D03*
%TD*%
D17*
%TO.P,U3,1,Vdd*%
%TO.N,+3.3V*%
X59690000Y-73660000D03*
D16*
%TO.P,U3,2,~{CS}*%
%TO.N,dac_cs_n*%
X62230000Y-73660000D03*
%TO.P,U3,3,SCK*%
%TO.N,dac_clk*%
X64770000Y-73660000D03*
%TO.P,U3,4,SDI*%
%TO.N,dac_sd1*%
X67310000Y-73660000D03*
%TO.P,U3,5,~{LDAC}*%
%TO.N,dac_ld_n*%
X67310000Y-66040000D03*
%TO.P,U3,6,Vref*%
%TO.N,Vref*%
X64770000Y-66040000D03*
%TO.P,U3,7,Vss*%
%TO.N,GND*%
X62230000Y-66040000D03*
%TO.P,U3,8,Vout*%
%TO.N,beam_y*%
X59690000Y-66040000D03*
%TD*%
D13*
%TO.P,R5,1*%
%TO.N,-5VA*%
X71755000Y-11430000D03*
D16*
%TO.P,R5,2*%
%TO.N,Net-(R5-Pad2)*%
X71755000Y-8890000D03*
%TD*%
D13*
%TO.P,R1,1*%
%TO.N,Net-(J5-Pin_3)*%
X47625000Y-55880000D03*
D16*
%TO.P,R1,2*%
%TO.N,+3.3V*%
X40005000Y-55880000D03*
%TD*%
D13*
%TO.P,R21,1*%
%TO.N,Net-(D1-A)*%
X8890000Y-33020000D03*
D16*
%TO.P,R21,2*%
%TO.N,+5VA*%
X6350000Y-33020000D03*
%TD*%
D13*
%TO.P,R13,1*%
%TO.N,Net-(U8A--)*%
X25400000Y-27940000D03*
D16*
%TO.P,R13,2*%
%TO.N,Net-(J9-Pin_1)*%
X22860000Y-27940000D03*
%TD*%
D12*
%TO.P,RV14,1,1*%
%TO.N,Net-(U9B--)*%
X50800000Y-22860000D03*
%TO.P,RV14,2,2*%
%TO.N,Net-(C35-Pad1)*%
X53340000Y-20320000D03*
%TO.P,RV14,3,3*%
X55880000Y-22860000D03*
%TD*%
D13*
%TO.P,R16,1*%
%TO.N,+5VA*%
X60960000Y-38100000D03*
D16*
%TO.P,R16,2*%
%TO.N,Net-(R16-Pad2)*%
X60960000Y-40640000D03*
%TD*%
D14*
%TO.P,J3,1,Pin_1*%
%TO.N,+5V*%
X2540000Y-68580000D03*
D15*
%TO.P,J3,2,Pin_2*%
%TO.N,GND*%
X5080000Y-68580000D03*
%TO.P,J3,3,Pin_3*%
%TO.N,dac_clk*%
X7620000Y-68580000D03*
%TO.P,J3,4,Pin_4*%
%TO.N,dac_cs_n*%
X10160000Y-68580000D03*
%TO.P,J3,5,Pin_5*%
%TO.N,dac_ld_n*%
X12700000Y-68580000D03*
%TO.P,J3,6,Pin_6*%
%TO.N,dac_sd0*%
X15240000Y-68580000D03*
%TO.P,J3,7,Pin_7*%
%TO.N,dac_sd1*%
X17780000Y-68580000D03*
%TO.P,J3,8,Pin_8*%
%TO.N,dac_sd2*%
X20320000Y-68580000D03*
%TO.P,J3,9,Pin_9*%
%TO.N,audio_pwm*%
X22860000Y-68580000D03*
%TO.P,J3,10,Pin_10*%
%TO.N,unconnected-(J3-Pin_10-Pad10)*%
X25400000Y-68580000D03*
%TO.P,J3,11,Pin_11*%
%TO.N,unconnected-(J3-Pin_11-Pad11)*%
X27940000Y-68580000D03*
%TO.P,J3,12,Pin_12*%
%TO.N,unconnected-(J3-Pin_12-Pad12)*%
X30480000Y-68580000D03*
%TO.P,J3,13,Pin_13*%
%TO.N,unconnected-(J3-Pin_13-Pad13)*%
X33020000Y-68580000D03*
%TO.P,J3,14,Pin_14*%
%TO.N,unconnected-(J3-Pin_14-Pad14)*%
X35560000Y-68580000D03*
%TO.P,J3,15,Pin_15*%
%TO.N,GND*%
X38100000Y-68580000D03*
%TO.P,J3,16,Pin_16*%
%TO.N,+3.3V*%
X40640000Y-68580000D03*
%TO.P,J3,17,Pin_17*%
%TO.N,joystick_cs2*%
X43180000Y-68580000D03*
%TO.P,J3,18,Pin_18*%
%TO.N,joystick_miso2*%
X45720000Y-68580000D03*
%TO.P,J3,19,Pin_19*%
%TO.N,joystick_mosi2*%
X48260000Y-68580000D03*
%TO.P,J3,20,Pin_20*%
%TO.N,joystick_clk2*%
X50800000Y-68580000D03*
%TD*%
D13*
%TO.P,R3,1*%
%TO.N,GND*%
X35560000Y-58420000D03*
D16*
%TO.P,R3,2*%
%TO.N,Net-(C11-Pad2)*%
X33020000Y-58420000D03*
%TD*%
D12*
%TO.P,RV10,1,1*%
%TO.N,Net-(C25-Pad1)*%
X12700000Y-7620000D03*
%TO.P,RV10,2,2*%
%TO.N,Net-(J8-Pin_1)*%
X15240000Y-5080000D03*
%TO.P,RV10,3,3*%
X17780000Y-7620000D03*
%TD*%
D13*
%TO.P,C15,1*%
%TO.N,Net-(U6B-+)*%
X55800000Y-3810000D03*
%TO.P,C15,2*%
%TO.N,GND*%
X50800000Y-3810000D03*
%TD*%
%TO.P,R19,1*%
%TO.N,Net-(U9A--)*%
X48260000Y-38100000D03*
D16*
%TO.P,R19,2*%
%TO.N,Net-(R19-Pad2)*%
X45720000Y-38100000D03*
%TD*%
D13*
%TO.P,R6,1*%
%TO.N,+5VA*%
X81915000Y-16510000D03*
D16*
%TO.P,R6,2*%
%TO.N,Net-(R6-Pad2)*%
X81915000Y-19050000D03*
%TD*%
D17*
%TO.P,U10,1,GND*%
%TO.N,GND*%
X8890000Y-43180000D03*
D16*
%TO.P,U10,2,TR*%
%TO.N,Net-(D1-K)*%
X11430000Y-43180000D03*
%TO.P,U10,3,Q*%
%TO.N,Net-(U10-Q)*%
X13970000Y-43180000D03*
%TO.P,U10,4,R*%
%TO.N,+5VA*%
X16510000Y-43180000D03*
%TO.P,U10,5,CV*%
%TO.N,Net-(U10-CV)*%
X16510000Y-35560000D03*
%TO.P,U10,6,THR*%
%TO.N,Net-(D1-K)*%
X13970000Y-35560000D03*
%TO.P,U10,7,DIS*%
%TO.N,Net-(D1-A)*%
X11430000Y-35560000D03*
%TO.P,U10,8,VCC*%
%TO.N,+5VA*%
X8890000Y-35560000D03*
%TD*%
D13*
%TO.P,R11,1*%
%TO.N,Net-(U7A--)*%
X25400000Y-8890000D03*
D16*
%TO.P,R11,2*%
%TO.N,Net-(J8-Pin_1)*%
X22860000Y-8890000D03*
%TD*%
D13*
%TO.P,R2,1*%
%TO.N,Net-(R2-Pad1)*%
X22860000Y-60960000D03*
D16*
%TO.P,R2,2*%
%TO.N,Net-(U5-+)*%
X25400000Y-60960000D03*
%TD*%
D14*
%TO.P,LS1,1,1*%
%TO.N,Net-(C12-Pad2)*%
X2540000Y-57150000D03*
D15*
%TO.P,LS1,2,2*%
%TO.N,GND*%
X2540000Y-59690000D03*
%TD*%
D14*
%TO.P,J9,1,Pin_1*%
%TO.N,Net-(J9-Pin_1)*%
X2540000Y-15240000D03*
D15*
%TO.P,J9,2,Pin_2*%
%TO.N,Net-(J9-Pin_2)*%
X2540000Y-17780000D03*
%TD*%
D12*
%TO.P,RV5,1,1*%
%TO.N,Net-(U6A--)*%
X63500000Y-19050000D03*
%TO.P,RV5,2,2*%
%TO.N,Net-(U8B-+)*%
X66040000Y-16510000D03*
%TO.P,RV5,3,3*%
X68580000Y-19050000D03*
%TD*%
D17*
%TO.P,U5,1,GAIN*%
%TO.N,unconnected-(U5-GAIN-Pad1)*%
X20320000Y-58420000D03*
D16*
%TO.P,U5,2,-*%
%TO.N,GND*%
X22860000Y-58420000D03*
%TO.P,U5,3,+*%
%TO.N,Net-(U5-+)*%
X25400000Y-58420000D03*
%TO.P,U5,4,GND*%
%TO.N,GND*%
X27940000Y-58420000D03*
%TO.P,U5,5*%
%TO.N,Net-(C11-Pad1)*%
X27940000Y-50800000D03*
%TO.P,U5,6,V+*%
%TO.N,+5V*%
X25400000Y-50800000D03*
%TO.P,U5,7,BYPASS*%
%TO.N,unconnected-(U5-BYPASS-Pad7)*%
X22860000Y-50800000D03*
%TO.P,U5,8,GAIN*%
%TO.N,unconnected-(U5-GAIN-Pad8)*%
X20320000Y-50800000D03*
%TD*%
D12*
%TO.P,RV4,1,1*%
%TO.N,Net-(U6B--)*%
X63500000Y-11430000D03*
%TO.P,RV4,2,2*%
%TO.N,Net-(U7B-+)*%
X66040000Y-8890000D03*
%TO.P,RV4,3,3*%
X68580000Y-11430000D03*
%TD*%
D17*
%TO.P,U2,1,Vdd*%
%TO.N,+3.3V*%
X59690000Y-60960000D03*
D16*
%TO.P,U2,2,~{CS}*%
%TO.N,dac_cs_n*%
X62230000Y-60960000D03*
%TO.P,U2,3,SCK*%
%TO.N,dac_clk*%
X64770000Y-60960000D03*
%TO.P,U2,4,SDI*%
%TO.N,dac_sd0*%
X67310000Y-60960000D03*
%TO.P,U2,5,~{LDAC}*%
%TO.N,dac_ld_n*%
X67310000Y-53340000D03*
%TO.P,U2,6,Vref*%
%TO.N,Vref*%
X64770000Y-53340000D03*
%TO.P,U2,7,Vss*%
%TO.N,GND*%
X62230000Y-53340000D03*
%TO.P,U2,8,Vout*%
%TO.N,beam_x*%
X59690000Y-53340000D03*
%TD*%
D12*
%TO.P,RV11,1,1*%
%TO.N,Net-(C26-Pad1)*%
X12700000Y-17780000D03*
%TO.P,RV11,2,2*%
%TO.N,Net-(J9-Pin_1)*%
X15240000Y-15240000D03*
%TO.P,RV11,3,3*%
X17780000Y-17780000D03*
%TD*%
D13*
%TO.P,R22,1*%
%TO.N,Net-(R22-Pad1)*%
X16510000Y-30480000D03*
D16*
%TO.P,R22,2*%
%TO.N,Net-(D1-A)*%
X13970000Y-30480000D03*
%TD*%
D14*
%TO.P,J10,1,Pin_1*%
%TO.N,GND*%
X78740000Y-43180000D03*
D15*
%TO.P,J10,2,Pin_2*%
%TO.N,-5VA*%
X78740000Y-40640000D03*
%TD*%
D13*
%TO.P,R20,1*%
%TO.N,Net-(R19-Pad2)*%
X48260000Y-25400000D03*
D16*
%TO.P,R20,2*%
%TO.N,Net-(U9B--)*%
X48260000Y-22860000D03*
%TD*%
D13*
%TO.P,C32,1*%
%TO.N,Net-(D1-K)*%
X13970000Y-27940000D03*
%TO.P,C32,2*%
%TO.N,GND*%
X18970000Y-27940000D03*
%TD*%
%TO.P,R8,1*%
%TO.N,beam_x0*%
X60960000Y-11430000D03*
D16*
%TO.P,R8,2*%
%TO.N,Net-(U6B--)*%
X60960000Y-8890000D03*
%TD*%
D12*
%TO.P,RV8,1,1*%
%TO.N,Net-(U8B--)*%
X29225000Y-27940000D03*
%TO.P,RV8,2,2*%
%TO.N,Net-(J9-Pin_1)*%
X31765000Y-25400000D03*
%TO.P,RV8,3,3*%
X34305000Y-27940000D03*
%TD*%
D13*
%TO.P,C10,1*%
%TO.N,Net-(U5-+)*%
X28020000Y-60960000D03*
%TO.P,C10,2*%
%TO.N,GND*%
X33020000Y-60960000D03*
%TD*%
D12*
%TO.P,RV2,1,1*%
%TO.N,Net-(R5-Pad2)*%
X74310000Y-11505000D03*
%TO.P,RV2,2,2*%
%TO.N,Net-(U6B-+)*%
X76850000Y-8965000D03*
%TO.P,RV2,3,3*%
%TO.N,Net-(R4-Pad2)*%
X79390000Y-11505000D03*
%TD*%
D13*
%TO.P,R17,1*%
%TO.N,-5VA*%
X50800000Y-40640000D03*
D16*
%TO.P,R17,2*%
%TO.N,Net-(R17-Pad2)*%
X50800000Y-38100000D03*
%TD*%
D13*
%TO.P,C11,1*%
%TO.N,Net-(C11-Pad1)*%
X33020000Y-50880000D03*
%TO.P,C11,2*%
%TO.N,Net-(C11-Pad2)*%
X33020000Y-55880000D03*
%TD*%
D21*
%TO.P,C12,1*%
%TO.N,Net-(C11-Pad1)*%
X15240000Y-50800000D03*
D22*
%TO.P,C12,2*%
%TO.N,Net-(C12-Pad2)*%
X13740000Y-50800000D03*
%TD*%
D13*
%TO.P,C25,1*%
%TO.N,Net-(C25-Pad1)*%
X10160000Y-5160000D03*
%TO.P,C25,2*%
%TO.N,Net-(J8-Pin_2)*%
X10160000Y-10160000D03*
%TD*%
D17*
%TO.P,U9,1*%
%TO.N,Net-(R19-Pad2)*%
X48260000Y-35560000D03*
D16*
%TO.P,U9,2,-*%
%TO.N,Net-(U9A--)*%
X50800000Y-35560000D03*
%TO.P,U9,3,+*%
%TO.N,Net-(U9A-+)*%
X53340000Y-35560000D03*
%TO.P,U9,4,V-*%
%TO.N,-15V*%
X55880000Y-35560000D03*
%TO.P,U9,5,+*%
%TO.N,GND*%
X55880000Y-27940000D03*
%TO.P,U9,6,-*%
%TO.N,Net-(U9B--)*%
X53340000Y-27940000D03*
%TO.P,U9,7*%
%TO.N,Net-(C35-Pad1)*%
X50800000Y-27940000D03*
%TO.P,U9,8,V+*%
%TO.N,+15V*%
X48260000Y-27940000D03*
%TD*%
D13*
%TO.P,R14,1*%
%TO.N,GND*%
X6350000Y-10160000D03*
D16*
%TO.P,R14,2*%
%TO.N,Net-(J8-Pin_2)*%
X6350000Y-7620000D03*
%TD*%
D13*
%TO.P,R10,1*%
%TO.N,Net-(U7A-+)*%
X25400000Y-6350000D03*
D16*
%TO.P,R10,2*%
%TO.N,Net-(J8-Pin_1)*%
X22860000Y-6350000D03*
%TD*%
D12*
%TO.P,RV3,1,1*%
%TO.N,Net-(R7-Pad2)*%
X74310000Y-19125000D03*
%TO.P,RV3,2,2*%
%TO.N,Net-(U6A-+)*%
X76850000Y-16585000D03*
%TO.P,RV3,3,3*%
%TO.N,Net-(R6-Pad2)*%
X79390000Y-19125000D03*
%TD*%
D14*
%TO.P,J14,1,Pin_1*%
%TO.N,Net-(J14-Pin_1)*%
X2540000Y-25400000D03*
D15*
%TO.P,J14,2,Pin_2*%
%TO.N,GND*%
X2540000Y-27940000D03*
%TD*%
D13*
%TO.P,C28,1*%
%TO.N,Net-(U9A-+)*%
X48180000Y-41275000D03*
%TO.P,C28,2*%
%TO.N,GND*%
X43180000Y-41275000D03*
%TD*%
D17*
%TO.P,D1,1,K*%
%TO.N,Net-(D1-K)*%
X13970000Y-33020000D03*
D16*
%TO.P,D1,2,A*%
%TO.N,Net-(D1-A)*%
X11430000Y-33020000D03*
%TD*%
D12*
%TO.P,RV1,1,1*%
%TO.N,GND*%
X10160000Y-58420000D03*
%TO.P,RV1,2,2*%
%TO.N,Net-(R2-Pad1)*%
X12700000Y-55880000D03*
%TO.P,RV1,3,3*%
%TO.N,audio_pwm*%
X15240000Y-58420000D03*
%TD*%
D13*
%TO.P,C35,1*%
%TO.N,Net-(C35-Pad1)*%
X11430000Y-25400000D03*
%TO.P,C35,2*%
%TO.N,Net-(C35-Pad2)*%
X6430000Y-25400000D03*
%TD*%
D14*
%TO.P,J12,1,Pin_1*%
%TO.N,+5V*%
X78740000Y-54356000D03*
D15*
%TO.P,J12,2,Pin_2*%
%TO.N,GND*%
X76200000Y-54356000D03*
%TD*%
D14*
%TO.P,J6,1,Pin_1*%
%TO.N,beam_x*%
X78740000Y-58420000D03*
D15*
%TO.P,J6,2,Pin_2*%
%TO.N,GND*%
X76200000Y-58420000D03*
%TO.P,J6,3,Pin_3*%
%TO.N,beam_y*%
X78740000Y-60960000D03*
%TO.P,J6,4,Pin_4*%
%TO.N,GND*%
X76200000Y-60960000D03*
%TO.P,J6,5,Pin_5*%
%TO.N,beam_z*%
X78740000Y-63500000D03*
%TO.P,J6,6,Pin_6*%
%TO.N,GND*%
X76200000Y-63500000D03*
%TD*%
D23*
%TO.N,+5VA*%
X69596000Y-37084000D03*
%TO.N,dac_cs_n*%
X63399500Y-83185000D03*
%TO.N,dac_ld_n*%
X68435000Y-58420000D03*
%TO.N,dac_sd1*%
X66040000Y-59779500D03*
X67310000Y-63500000D03*
%TO.N,Net-(U8B-+)*%
X45085000Y-15875000D03*
%TO.N,beam_x0*%
X63500000Y-16510000D03*
%TD*%
D24*
%TO.N,+5V*%
X81915000Y-51181000D02*
X78740000Y-54356000D01*
X78740000Y-37189138D02*
X78740000Y-36830000D01*
X81590000Y-48260000D02*
X81915000Y-48585000D01*
X25400000Y-49668630D02*
X25400000Y-50800000D01*
X72136000Y-35665138D02*
X72136000Y-32703665D01*
X78680000Y-48200000D02*
X70612000Y-48200000D01*
X26868630Y-48200000D02*
X25400000Y-49668630D01*
X72136000Y-35665138D02*
X75350862Y-38880000D01*
D25*
X74019138Y-41910000D02*
X70612000Y-41910000D01*
D24*
X81915000Y-48585000D02*
X81915000Y-51181000D01*
X23991370Y-48260000D02*
X10795000Y-48260000D01*
X78740000Y-48260000D02*
X81590000Y-48260000D01*
X10795000Y-48260000D02*
X5715000Y-53340000D01*
X5715000Y-53340000D02*
X5715000Y-59414138D01*
X72136000Y-32703665D02*
X72040167Y-32607832D01*
X5715000Y-59414138D02*
X2540000Y-62589138D01*
X70612000Y-48200000D02*
X26868630Y-48200000D01*
X25400000Y-49668630D02*
X23991370Y-48260000D01*
X78740000Y-48260000D02*
X78680000Y-48200000D01*
X75350862Y-38880000D02*
X77049138Y-38880000D01*
D25*
X77049138Y-38880000D02*
X74019138Y-41910000D01*
D26*
X70612000Y-48200000D02*
X70612000Y-41910000D01*
D25*
X70612000Y-41910000D02*
X65405000Y-41910000D01*
D24*
X77049138Y-38880000D02*
X78740000Y-37189138D01*
X2540000Y-62589138D02*
X2540000Y-68580000D01*
D27*
%TO.N,Vref*%
X57568679Y-53340000D02*
X59068679Y-51840000D01*
X50800000Y-53340000D02*
X57568679Y-53340000D01*
X63270000Y-51840000D02*
X64770000Y-53340000D01*
X59068679Y-51840000D02*
X63270000Y-51840000D01*
D28*
%TO.N,Net-(U5-+)*%
X25400000Y-60960000D02*
X25400000Y-58420000D01*
X28020000Y-60960000D02*
X25400000Y-60960000D01*
D24*
%TO.N,+3.3V*%
X61401572Y-88360000D02*
X71630228Y-88360000D01*
X57690000Y-71660000D02*
X57690000Y-62960000D01*
X71630228Y-88360000D02*
X77470000Y-82520228D01*
X52560000Y-66530000D02*
X41420000Y-66530000D01*
X57690000Y-62960000D02*
X59690000Y-60960000D01*
X59690000Y-86648428D02*
X61401572Y-88360000D01*
X48260000Y-87697919D02*
X48260000Y-88900000D01*
X41420000Y-66530000D02*
X40640000Y-67310000D01*
X59690000Y-73660000D02*
X52560000Y-66530000D01*
X59690000Y-86360000D02*
X49597919Y-86360000D01*
X77470000Y-73727919D02*
X74862081Y-71120000D01*
X59690000Y-73660000D02*
X57690000Y-71660000D01*
X74862081Y-71120000D02*
X73660000Y-71120000D01*
X59690000Y-86360000D02*
X59690000Y-86648428D01*
X77470000Y-82520228D02*
X77470000Y-73727919D01*
X49597919Y-86360000D02*
X48260000Y-87697919D01*
X40640000Y-67310000D02*
X40640000Y-68580000D01*
D25*
%TO.N,+5VA*%
X44330000Y-29330000D02*
X38736500Y-34923500D01*
D28*
X7690000Y-44380000D02*
X7620000Y-44310000D01*
D27*
X31113500Y-34923500D02*
X38101500Y-34923500D01*
D25*
X38736500Y-34923500D02*
X38101500Y-34923500D01*
D27*
X29210000Y-33020000D02*
X31113500Y-34923500D01*
D25*
X44330000Y-21545126D02*
X44330000Y-29330000D01*
D27*
X45845500Y-14603500D02*
X46510000Y-15268000D01*
D28*
X7620000Y-44310000D02*
X7620000Y-36830000D01*
D24*
X68853572Y-29772000D02*
X57005786Y-17924214D01*
D28*
X7620000Y-36830000D02*
X8890000Y-35560000D01*
D25*
X47615126Y-18260000D02*
X46510000Y-17154874D01*
X54418428Y-18260000D02*
X47615126Y-18260000D01*
D24*
X68853572Y-29772000D02*
X71936000Y-29772000D01*
D25*
X54754214Y-17924214D02*
X54418428Y-18260000D01*
X47615126Y-18260000D02*
X44330000Y-21545126D01*
D27*
X29210000Y-12700000D02*
X31113500Y-14603500D01*
D28*
X68580000Y-38100000D02*
X60960000Y-38100000D01*
X16510000Y-43180000D02*
X15310000Y-44380000D01*
D25*
X48260000Y-6350000D02*
X46510000Y-8100000D01*
X46510000Y-16510000D02*
X46510000Y-13970000D01*
D27*
X31113500Y-14603500D02*
X45845500Y-14603500D01*
D28*
X6350000Y-33020000D02*
X8890000Y-35560000D01*
X15310000Y-44380000D02*
X7690000Y-44380000D01*
D25*
X46510000Y-8100000D02*
X46510000Y-13970000D01*
D28*
X69596000Y-37084000D02*
X68580000Y-38100000D01*
D25*
X46510000Y-17154874D02*
X46510000Y-16510000D01*
D24*
X57005786Y-17924214D02*
X54754214Y-17924214D01*
D25*
X46510000Y-13970000D02*
X46510000Y-15268000D01*
D24*
%TO.N,-5VA*%
X77161854Y-19612146D02*
X81990000Y-24440292D01*
D25*
X71755000Y-16510000D02*
X74059708Y-16510000D01*
X71755000Y-16510000D02*
X69215000Y-13970000D01*
D24*
X81390000Y-23840291D02*
X79701854Y-22152146D01*
X81990000Y-37390000D02*
X78740000Y-40640000D01*
D25*
X77161854Y-19612146D02*
X78622354Y-21072646D01*
D24*
X71755000Y-16510000D02*
X71755000Y-11430000D01*
X81990000Y-24440292D02*
X81990000Y-37390000D01*
D25*
X69215000Y-13970000D02*
X55880000Y-13970000D01*
D24*
X80940000Y-23390291D02*
X78622354Y-21072646D01*
D25*
X74059708Y-16510000D02*
X77161854Y-19612146D01*
D28*
%TO.N,Net-(C11-Pad1)*%
X28020000Y-50880000D02*
X27940000Y-50800000D01*
X16640000Y-52200000D02*
X15240000Y-50800000D01*
X27940000Y-50800000D02*
X26540000Y-52200000D01*
X33020000Y-50880000D02*
X28020000Y-50880000D01*
X26540000Y-52200000D02*
X16640000Y-52200000D01*
%TO.N,Net-(C11-Pad2)*%
X33020000Y-55880000D02*
X33020000Y-58420000D01*
D27*
%TO.N,Net-(J8-Pin_2)*%
X3325000Y-1195000D02*
X37950000Y-1195000D01*
X990000Y-6324000D02*
X990000Y-3530000D01*
X6350000Y-7620000D02*
X7620000Y-7620000D01*
X2286000Y-7620000D02*
X990000Y-6324000D01*
X2540000Y-7620000D02*
X6350000Y-7620000D01*
X37950000Y-1195000D02*
X41910000Y-5155000D01*
X990000Y-3530000D02*
X3325000Y-1195000D01*
X2540000Y-7620000D02*
X2286000Y-7620000D01*
X7620000Y-7620000D02*
X10160000Y-10160000D01*
%TO.N,Net-(J9-Pin_2)*%
X990000Y-17432081D02*
X990000Y-13690000D01*
X990000Y-13690000D02*
X2060000Y-12620000D01*
X6350000Y-17780000D02*
X7620000Y-17780000D01*
X39385000Y-25400000D02*
X39385000Y-23891000D01*
X39385000Y-25400000D02*
X41925000Y-27940000D01*
X7620000Y-17780000D02*
X10160000Y-20320000D01*
X2540000Y-17780000D02*
X6350000Y-17780000D01*
X2060000Y-12620000D02*
X18510000Y-12620000D01*
X1337919Y-17780000D02*
X990000Y-17432081D01*
X39385000Y-23891000D02*
X37592000Y-22098000D01*
X18510000Y-12620000D02*
X27988000Y-22098000D01*
X2540000Y-17780000D02*
X1337919Y-17780000D01*
X27988000Y-22098000D02*
X37592000Y-22098000D01*
%TO.N,Net-(U8A-+)*%
X27710000Y-37640000D02*
X29210000Y-39140000D01*
X32790000Y-39140000D02*
X34290000Y-40640000D01*
X26900000Y-26900000D02*
X25400000Y-25400000D01*
X29210000Y-39140000D02*
X32790000Y-39140000D01*
X27710000Y-31910000D02*
X27710000Y-37640000D01*
X30250000Y-31520000D02*
X28100000Y-31520000D01*
X31115000Y-32385000D02*
X26900000Y-28170000D01*
X31115000Y-32385000D02*
X30250000Y-31520000D01*
X31750000Y-33020000D02*
X31115000Y-32385000D01*
X28100000Y-31520000D02*
X27710000Y-31910000D01*
X26900000Y-28170000D02*
X26900000Y-26900000D01*
D28*
%TO.N,Net-(D1-K)*%
X13970000Y-38100000D02*
X17780000Y-41910000D01*
X17780000Y-41910000D02*
X20320000Y-41910000D01*
X12700000Y-29210000D02*
X12700000Y-31750000D01*
X13970000Y-35560000D02*
X13970000Y-38100000D01*
X13970000Y-27940000D02*
X12700000Y-29210000D01*
X13970000Y-33020000D02*
X13970000Y-35560000D01*
X12700000Y-31750000D02*
X13970000Y-33020000D01*
D25*
%TO.N,+15V*%
X56004874Y-30290000D02*
X57630000Y-28664874D01*
X59690000Y-25400000D02*
X57630000Y-27460000D01*
X48260000Y-29718000D02*
X48832000Y-30290000D01*
X48832000Y-30290000D02*
X56004874Y-30290000D01*
X48260000Y-29718000D02*
X48260000Y-27940000D01*
X57630000Y-28664874D02*
X57630000Y-27460000D01*
D28*
%TO.N,Net-(D1-A)*%
X11430000Y-33020000D02*
X11430000Y-35560000D01*
D26*
%TO.N,joystick_cs2*%
X75735000Y-82381396D02*
X75735000Y-75735000D01*
X48894302Y-76838490D02*
X48894302Y-76834302D01*
X43180000Y-71120000D02*
X43180000Y-68580000D01*
X75735000Y-75735000D02*
X73660000Y-73660000D01*
X69850000Y-81545000D02*
X71660000Y-83355000D01*
X48894302Y-76838490D02*
X53600812Y-81545000D01*
X71660000Y-83355000D02*
X74761396Y-83355000D01*
X53600812Y-81545000D02*
X69850000Y-81545000D01*
X74761396Y-83355000D02*
X75735000Y-82381396D01*
X48894302Y-76834302D02*
X43180000Y-71120000D01*
%TO.N,joystick_miso2*%
X75285000Y-82195000D02*
X74575000Y-82905000D01*
X74575000Y-82905000D02*
X72295000Y-82905000D01*
X45720000Y-73023604D02*
X49715000Y-77018604D01*
X75285000Y-77825000D02*
X75285000Y-82195000D01*
X73660000Y-76200000D02*
X75285000Y-77825000D01*
X72295000Y-82905000D02*
X70485000Y-81095000D01*
X70485000Y-81095000D02*
X53787208Y-81095000D01*
X49529302Y-76837094D02*
X53787208Y-81095000D01*
X45720000Y-68580000D02*
X45720000Y-73023604D01*
%TO.N,joystick_mosi2*%
X74835000Y-79915000D02*
X74835000Y-81766701D01*
X48260000Y-74927208D02*
X48260000Y-68580000D01*
X50165000Y-76832208D02*
X48260000Y-74927208D01*
X72930000Y-82455000D02*
X71120000Y-80645000D01*
X73660000Y-78740000D02*
X74835000Y-79915000D01*
X50165000Y-76836396D02*
X50165000Y-76832208D01*
X53973604Y-80645000D02*
X50165000Y-76836396D01*
X74835000Y-81766701D02*
X74146701Y-82455000D01*
X71120000Y-80645000D02*
X53973604Y-80645000D01*
X74146701Y-82455000D02*
X72930000Y-82455000D01*
%TO.N,joystick_clk2*%
X50800000Y-76835000D02*
X50800000Y-68580000D01*
X73660000Y-81280000D02*
X72390000Y-80010000D01*
X53975000Y-80010000D02*
X50800000Y-76835000D01*
X72390000Y-80010000D02*
X53975000Y-80010000D01*
D28*
%TO.N,Net-(U10-CV)*%
X13970000Y-25480000D02*
X15170000Y-26680000D01*
X15170000Y-26680000D02*
X15170000Y-34220000D01*
X15170000Y-34220000D02*
X16510000Y-35560000D01*
%TO.N,Net-(U9A-+)*%
X49600000Y-37602943D02*
X50372943Y-36830000D01*
X48180000Y-41275000D02*
X49600000Y-39855000D01*
X53340000Y-35620000D02*
X55895000Y-38175000D01*
X52070000Y-36830000D02*
X53340000Y-35560000D01*
X53340000Y-35560000D02*
X53340000Y-35620000D01*
X49600000Y-39855000D02*
X49600000Y-37602943D01*
X50372943Y-36830000D02*
X52070000Y-36830000D01*
%TO.N,dac_clk*%
X52595000Y-83710000D02*
X40640000Y-71755000D01*
X62120000Y-83710000D02*
X52595000Y-83710000D01*
X10795000Y-71755000D02*
X7620000Y-68580000D01*
X64770000Y-86360000D02*
X62120000Y-83710000D01*
X40640000Y-71755000D02*
X10795000Y-71755000D01*
D26*
%TO.N,dac_cs_n*%
X12700000Y-71120000D02*
X41275000Y-71120000D01*
X10160000Y-68580000D02*
X12700000Y-71120000D01*
X41275000Y-71120000D02*
X53340000Y-83185000D01*
X53340000Y-83185000D02*
X63399500Y-83185000D01*
%TO.N,dac_ld_n*%
X12700000Y-68580000D02*
X19195000Y-62085000D01*
X47768604Y-62085000D02*
X51433604Y-58420000D01*
X51433604Y-58420000D02*
X68435000Y-58420000D01*
X19195000Y-62085000D02*
X47768604Y-62085000D01*
%TO.N,dac_sd0*%
X66675000Y-59055000D02*
X51435000Y-59055000D01*
X67310000Y-59690000D02*
X66675000Y-59055000D01*
X67310000Y-60960000D02*
X67310000Y-59690000D01*
X51435000Y-59055000D02*
X47955000Y-62535000D01*
X47955000Y-62535000D02*
X21285000Y-62535000D01*
X21285000Y-62535000D02*
X15240000Y-68580000D01*
%TO.N,dac_sd1*%
X67310000Y-63500000D02*
X68435000Y-64625000D01*
X65895500Y-59635000D02*
X66040000Y-59779500D01*
X23375000Y-62985000D02*
X48260000Y-62985000D01*
X68435000Y-64625000D02*
X68435000Y-72535000D01*
X17780000Y-68580000D02*
X23375000Y-62985000D01*
X68435000Y-72535000D02*
X67310000Y-73660000D01*
X48260000Y-62985000D02*
X51610000Y-59635000D01*
X51610000Y-59635000D02*
X65895500Y-59635000D01*
%TO.N,dac_sd2*%
X41910000Y-70485000D02*
X22225000Y-70485000D01*
X66675000Y-81995000D02*
X53414416Y-81995000D01*
X53414416Y-81995000D02*
X41910000Y-70490584D01*
X41910000Y-70490584D02*
X41910000Y-70485000D01*
X22225000Y-70485000D02*
X20320000Y-68580000D01*
X67310000Y-82630000D02*
X66675000Y-81995000D01*
X67310000Y-86360000D02*
X67310000Y-82630000D01*
D28*
%TO.N,beam_x*%
X63520000Y-57170000D02*
X77490000Y-57170000D01*
X77490000Y-57170000D02*
X78740000Y-58420000D01*
X59690000Y-53340000D02*
X63520000Y-57170000D01*
%TO.N,beam_y*%
X63520000Y-62210000D02*
X77490000Y-62210000D01*
X77490000Y-62210000D02*
X78740000Y-60960000D01*
X59690000Y-66040000D02*
X63520000Y-62210000D01*
%TO.N,beam_z*%
X67310000Y-77470000D02*
X69850000Y-74930000D01*
X69850000Y-74930000D02*
X69850000Y-69890000D01*
X59690000Y-78740000D02*
X60960000Y-77470000D01*
X60960000Y-77470000D02*
X67310000Y-77470000D01*
X69850000Y-69890000D02*
X74970000Y-64770000D01*
X74970000Y-64770000D02*
X77470000Y-64770000D01*
X77470000Y-64770000D02*
X78740000Y-63500000D01*
D27*
%TO.N,Net-(J8-Pin_1)*%
X2540000Y-5080000D02*
X3960000Y-3660000D01*
X13820000Y-3660000D02*
X15240000Y-5080000D01*
X22860000Y-6350000D02*
X26595000Y-2615000D01*
X31750000Y-2615000D02*
X34290000Y-5155000D01*
X15240000Y-5080000D02*
X17780000Y-7620000D01*
X22860000Y-8890000D02*
X22860000Y-6350000D01*
X26595000Y-2615000D02*
X31750000Y-2615000D01*
X3960000Y-3660000D02*
X13820000Y-3660000D01*
X19050000Y-6350000D02*
X17780000Y-7620000D01*
X22860000Y-6350000D02*
X19050000Y-6350000D01*
%TO.N,Net-(J13-Pin_1)*%
X5080000Y-30480000D02*
X2540000Y-33020000D01*
X6350000Y-30480000D02*
X5080000Y-30480000D01*
%TO.N,Net-(R5-Pad2)*%
X71755000Y-8890000D02*
X71755000Y-8950000D01*
X71755000Y-8950000D02*
X74310000Y-11505000D01*
%TO.N,Net-(R7-Pad2)*%
X71755000Y-19050000D02*
X74235000Y-19050000D01*
X74235000Y-19050000D02*
X74310000Y-19125000D01*
%TO.N,Net-(J9-Pin_1)*%
X31765000Y-25400000D02*
X34305000Y-27940000D01*
X17780000Y-17780000D02*
X15240000Y-15240000D01*
X3960000Y-13820000D02*
X13820000Y-13820000D01*
X22860000Y-25400000D02*
X22860000Y-22860000D01*
X2540000Y-15240000D02*
X3960000Y-13820000D01*
X30265000Y-23900000D02*
X31765000Y-25400000D01*
X22860000Y-22860000D02*
X17780000Y-17780000D01*
X22860000Y-25400000D02*
X24360000Y-23900000D01*
X13820000Y-13820000D02*
X15240000Y-15240000D01*
X24360000Y-23900000D02*
X30265000Y-23900000D01*
X22860000Y-25400000D02*
X22860000Y-27940000D01*
%TO.N,Net-(J14-Pin_1)*%
X6350000Y-27940000D02*
X5080000Y-27940000D01*
X5080000Y-27940000D02*
X2540000Y-25400000D01*
%TO.N,Net-(U7A-+)*%
X28889500Y-18796000D02*
X32766000Y-18796000D01*
X31750000Y-12700000D02*
X30250000Y-11200000D01*
X30250000Y-11200000D02*
X28424000Y-11200000D01*
X27710000Y-11914000D02*
X27710000Y-17616500D01*
X27710000Y-17616500D02*
X28889500Y-18796000D01*
X31750000Y-12700000D02*
X25400000Y-6350000D01*
X28424000Y-11200000D02*
X27710000Y-11914000D01*
X32766000Y-18796000D02*
X34290000Y-20320000D01*
%TO.N,Net-(U7A--)*%
X31750000Y-20320000D02*
X29210000Y-20320000D01*
X25400000Y-17003556D02*
X25400000Y-8890000D01*
X29210000Y-20320000D02*
X28716444Y-20320000D01*
X28716444Y-20320000D02*
X25400000Y-17003556D01*
D28*
%TO.N,Net-(U6A-+)*%
X53340000Y-13970000D02*
X53340000Y-16510000D01*
%TO.N,Net-(R16-Pad2)*%
X60885000Y-40715000D02*
X60960000Y-40640000D01*
X58435000Y-40715000D02*
X60885000Y-40715000D01*
%TO.N,Net-(R17-Pad2)*%
X53355000Y-40715000D02*
X53355000Y-40655000D01*
X53355000Y-40655000D02*
X50800000Y-38100000D01*
D27*
%TO.N,Net-(U8A--)*%
X29012944Y-40640000D02*
X26510000Y-38137056D01*
X31750000Y-40640000D02*
X29210000Y-40640000D01*
X26510000Y-30320000D02*
X25400000Y-29210000D01*
X26510000Y-38137056D02*
X26510000Y-30320000D01*
X25400000Y-29210000D02*
X25400000Y-27940000D01*
X29210000Y-40640000D02*
X29012944Y-40640000D01*
D28*
%TO.N,Net-(R19-Pad2)*%
X47060000Y-26600000D02*
X47060000Y-34360000D01*
X48260000Y-25400000D02*
X47060000Y-26600000D01*
X45720000Y-38100000D02*
X48260000Y-35560000D01*
X47060000Y-34360000D02*
X48260000Y-35560000D01*
D27*
%TO.N,Net-(U8B--)*%
X29225000Y-27940000D02*
X29225000Y-27955000D01*
X34290000Y-33020000D02*
X34290000Y-30495000D01*
X29225000Y-27955000D02*
X34290000Y-33020000D01*
X34290000Y-30495000D02*
X36845000Y-27940000D01*
D28*
%TO.N,Net-(R22-Pad1)*%
X24500000Y-41010000D02*
X25400000Y-41910000D01*
X17780000Y-30480000D02*
X24500000Y-37200000D01*
X17145000Y-30480000D02*
X17780000Y-30480000D01*
X24500000Y-37200000D02*
X24500000Y-41010000D01*
%TO.N,Net-(R2-Pad1)*%
X14283920Y-55880000D02*
X19363920Y-60960000D01*
X12700000Y-55880000D02*
X14283920Y-55880000D01*
X19363920Y-60960000D02*
X22860000Y-60960000D01*
%TO.N,Net-(U7B-+)*%
X36830000Y-12700000D02*
X44380000Y-5150000D01*
X66040000Y-8890000D02*
X64840000Y-7690000D01*
X52140000Y-7690000D02*
X50800000Y-6350000D01*
X44380000Y-5150000D02*
X49600000Y-5150000D01*
X64840000Y-7690000D02*
X52140000Y-7690000D01*
X66040000Y-8890000D02*
X68580000Y-11430000D01*
X49600000Y-5150000D02*
X50800000Y-6350000D01*
%TO.N,Net-(U6B-+)*%
X55880000Y-3890000D02*
X55800000Y-3810000D01*
X55880000Y-6350000D02*
X55880000Y-3890000D01*
X76850000Y-8965000D02*
X74235000Y-6350000D01*
X74235000Y-6350000D02*
X55880000Y-6350000D01*
D27*
%TO.N,Net-(U7B--)*%
X34290000Y-10235000D02*
X29210000Y-5155000D01*
X34290000Y-7695000D02*
X36830000Y-5155000D01*
X34290000Y-12700000D02*
X34290000Y-10235000D01*
X34290000Y-12700000D02*
X34290000Y-7695000D01*
D28*
%TO.N,Net-(U6B--)*%
X60960000Y-8890000D02*
X63500000Y-11430000D01*
%TO.N,Net-(U9A--)*%
X52000000Y-34360000D02*
X58490000Y-34360000D01*
X50800000Y-35560000D02*
X50794415Y-35560000D01*
X50800000Y-35560000D02*
X52000000Y-34360000D01*
X50794415Y-35560000D02*
X48260000Y-38094415D01*
X58490000Y-34360000D02*
X59690000Y-35560000D01*
X48260000Y-38094415D02*
X48260000Y-38100000D01*
%TO.N,Net-(U9B--)*%
X48260000Y-22860000D02*
X50800000Y-22860000D01*
X50800000Y-22860000D02*
X50800000Y-25400000D01*
X50800000Y-25400000D02*
X53340000Y-27940000D01*
%TO.N,Net-(U10-Q)*%
X13970000Y-41910000D02*
X13970000Y-43180000D01*
X10230000Y-38170000D02*
X13970000Y-41910000D01*
X10230000Y-31820000D02*
X10230000Y-38170000D01*
X8890000Y-30480000D02*
X10230000Y-31820000D01*
%TO.N,Net-(U8B-+)*%
X43180000Y-28268920D02*
X43180000Y-17780000D01*
X36830000Y-33020000D02*
X38428920Y-33020000D01*
X68580000Y-19050000D02*
X66040000Y-16510000D01*
X38428920Y-33020000D02*
X43180000Y-28268920D01*
X43180000Y-17780000D02*
X45085000Y-15875000D01*
D27*
%TO.N,Net-(C25-Pad1)*%
X10160000Y-5160000D02*
X10240000Y-5160000D01*
X10240000Y-5160000D02*
X12700000Y-7620000D01*
%TO.N,Net-(C26-Pad1)*%
X12700000Y-17780000D02*
X12620000Y-17780000D01*
X12620000Y-17780000D02*
X10160000Y-15320000D01*
D28*
%TO.N,Net-(C35-Pad1)*%
X53340000Y-20320000D02*
X49102943Y-20320000D01*
X49102943Y-20320000D02*
X45720000Y-23702943D01*
X14467057Y-24280000D02*
X12550000Y-24280000D01*
X53340000Y-20320000D02*
X55880000Y-22860000D01*
X15770000Y-27200000D02*
X15770000Y-25582943D01*
X15770000Y-25582943D02*
X14467057Y-24280000D01*
X45720000Y-23702943D02*
X45720000Y-33447057D01*
X52000000Y-29140000D02*
X53977057Y-29140000D01*
X54680000Y-28437057D02*
X54680000Y-24060000D01*
X50800000Y-27940000D02*
X52000000Y-29140000D01*
X25100000Y-36530000D02*
X15770000Y-27200000D01*
X25100000Y-38930000D02*
X25100000Y-36530000D01*
X28080000Y-41910000D02*
X25100000Y-38930000D01*
X54680000Y-24060000D02*
X55880000Y-22860000D01*
X12550000Y-24280000D02*
X11430000Y-25400000D01*
X37257057Y-41910000D02*
X28080000Y-41910000D01*
X53977057Y-29140000D02*
X54680000Y-28437057D01*
X45720000Y-33447057D02*
X37257057Y-41910000D01*
D27*
%TO.N,Net-(C35-Pad2)*%
X8890000Y-27940000D02*
X8890000Y-27860000D01*
X8890000Y-27860000D02*
X6430000Y-25400000D01*
D28*
%TO.N,beam_x0*%
X78242233Y-29210000D02*
X79237767Y-29210000D01*
X76717767Y-26690000D02*
X77470000Y-27442233D01*
X73680000Y-26690000D02*
X76717767Y-26690000D01*
X77470000Y-27442233D02*
X77470000Y-28437767D01*
X79990000Y-31770000D02*
X78740000Y-33020000D01*
X63500000Y-16510000D02*
X73680000Y-26690000D01*
X77470000Y-28437767D02*
X78242233Y-29210000D01*
X79237767Y-29210000D02*
X79990000Y-29962233D01*
X79990000Y-29962233D02*
X79990000Y-31770000D01*
%TO.N,beam_y0*%
X75702233Y-31750000D02*
X77470000Y-31750000D01*
X77470000Y-31750000D02*
X78740000Y-30480000D01*
X72390000Y-27940000D02*
X74950000Y-30500000D01*
X74950000Y-30997767D02*
X75702233Y-31750000D01*
X69850000Y-27940000D02*
X72390000Y-27940000D01*
X60960000Y-19050000D02*
X69850000Y-27940000D01*
X74950000Y-30500000D02*
X74950000Y-30997767D01*
%TO.N,beam_z0*%
X72584233Y-31172000D02*
X76464233Y-35052000D01*
X66294000Y-35560000D02*
X70682000Y-31172000D01*
X79208000Y-35052000D02*
X80590000Y-33670000D01*
X70682000Y-31172000D02*
X72584233Y-31172000D01*
X79942081Y-27940000D02*
X78740000Y-27940000D01*
X76464233Y-35052000D02*
X79208000Y-35052000D01*
X80590000Y-33670000D02*
X80590000Y-28587919D01*
X80590000Y-28587919D02*
X79942081Y-27940000D01*
X62230000Y-35560000D02*
X66294000Y-35560000D01*
%TD*%
M02*
