M48
; DRILL file {KiCad 7.0.7} date Thu Nov  2 14:39:52 2023
; FORMAT={-:-/ absolute / inch / decimal}
; #@! TF.CreationDate,2023-11-02T14:39:52+09:00
; #@! TF.GenerationSoftware,Kicad,Pcbnew,7.0.7
; #@! TF.FileFunction,Plated,1,2,PTH
FMAT,2
INCH
; #@! TA.AperFunction,Plated,PTH,ViaDrill
T1C0.0157
; #@! TA.AperFunction,Plated,PTH,ComponentDrill
T2C0.0236
; #@! TA.AperFunction,Plated,PTH,ComponentDrill
T3C0.0315
; #@! TA.AperFunction,Plated,PTH,ComponentDrill
T4C0.0335
; #@! TA.AperFunction,Plated,PTH,ComponentDrill
T5C0.0394
; #@! TA.AperFunction,Plated,PTH,ComponentDrill
T6C0.0591
%
G90
G05
T1
X1.775Y-0.625
X2.496Y-3.275
X2.5Y-0.65
X2.6Y-2.3535
X2.65Y-2.5
X2.6943Y-2.3
X2.74Y-1.46
T2
X0.5409Y-2.0
X0.6Y-2.0
T3
X0.25Y-0.3
X0.25Y-0.4
X0.25Y-0.7
X0.25Y-0.8
X0.25Y-1.1
X0.25Y-1.2
X0.25Y-1.3
X0.2531Y-1.0
X0.35Y-1.1
X0.35Y-1.2
X0.35Y-1.3
X0.35Y-1.4
X0.35Y-1.7
X0.4Y-0.2031
X0.4Y-0.4
X0.4Y-0.6031
X0.4Y-0.8
X0.4Y-2.3
X0.45Y-1.0
X0.45Y-1.3
X0.45Y-1.4
X0.45Y-1.7
X0.5Y-0.3
X0.5Y-0.7
X0.5Y-2.2
X0.55Y-1.0031
X0.55Y-1.1
X0.55Y-1.2
X0.55Y-1.3
X0.55Y-1.4
X0.55Y-1.7
X0.6Y-0.2
X0.6Y-0.6
X0.6Y-2.3
X0.65Y-1.2
X0.65Y-1.4
X0.65Y-1.7
X0.7Y-0.3
X0.7Y-0.7
X0.7469Y-1.0031
X0.7469Y-1.1
X0.8Y-1.65
X0.8Y-2.0
X0.8Y-2.3
X0.9Y-0.25
X0.9Y-0.35
X0.9Y-1.0
X0.9Y-1.1
X0.9Y-1.55
X0.9Y-2.0
X0.9Y-2.3
X0.9Y-2.4
X1.0Y-0.25
X1.0Y-0.35
X1.0Y-1.0
X1.0Y-1.1
X1.0Y-1.65
X1.0Y-2.0
X1.0Y-2.3
X1.0Y-2.4
X1.1Y-2.0
X1.1Y-2.3
X1.1031Y-2.4
X1.15Y-0.203
X1.15Y-0.5
X1.15Y-0.8
X1.15Y-1.3
X1.15Y-1.6
X1.1506Y-1.1
X1.25Y-0.103
X1.25Y-0.5
X1.25Y-0.8
X1.25Y-1.3
X1.25Y-1.6
X1.2506Y-1.0
X1.3Y-2.0031
X1.3Y-2.2
X1.3Y-2.3
X1.3Y-2.4
X1.35Y-0.203
X1.35Y-0.5
X1.35Y-0.8
X1.35Y-1.3
X1.35Y-1.6
X1.3506Y-1.1
X1.4Y-2.3
X1.45Y-0.203
X1.45Y-0.5
X1.45Y-0.8
X1.45Y-1.3
X1.45Y-1.6
X1.4506Y-1.1
X1.55Y-0.103
X1.5506Y-1.0
X1.575Y-2.2
X1.65Y-0.203
X1.6506Y-1.1
X1.7Y-1.625
X1.8Y-1.5
X1.875Y-2.2
X1.8969Y-1.625
X1.9Y-0.25
X1.9Y-0.55
X1.9Y-0.9
X1.9Y-1.0
X1.9Y-1.1
X1.9Y-1.4
X1.9Y-1.5
X1.9031Y-0.65
X2.0Y-0.15
X2.0Y-0.25
X2.0Y-0.55
X2.0Y-0.9
X2.0Y-1.1
X2.0Y-1.4
X2.0Y-1.5
X2.0Y-1.6
X2.1Y-0.25
X2.1Y-0.55
X2.1Y-0.65
X2.1Y-0.8
X2.1Y-1.1
X2.1Y-1.4
X2.1006Y-1.603
X2.1969Y-0.15
X2.2Y-0.25
X2.2Y-0.55
X2.2Y-0.9
X2.2Y-1.1
X2.2Y-1.4
X2.2006Y-1.503
X2.3006Y-1.603
X2.35Y-1.0
X2.35Y-1.1
X2.35Y-1.2
X2.35Y-1.3
X2.35Y-1.4
X2.35Y-2.1
X2.35Y-2.4
X2.35Y-2.6
X2.35Y-2.9
X2.35Y-3.1
X2.35Y-3.4
X2.4Y-0.35
X2.4Y-0.45
X2.4Y-0.65
X2.4Y-0.75
X2.4Y-1.5
X2.4Y-1.6
X2.45Y-1.4
X2.45Y-2.1
X2.45Y-2.4
X2.45Y-2.6
X2.45Y-2.9
X2.45Y-3.1
X2.45Y-3.4
X2.5Y-0.45
X2.5Y-0.75
X2.55Y-2.1
X2.55Y-2.4
X2.55Y-2.6
X2.55Y-2.9
X2.55Y-3.1
X2.55Y-3.4
X2.6Y-0.35
X2.6Y-0.65
X2.65Y-2.1
X2.65Y-2.4
X2.65Y-2.6
X2.65Y-2.9
X2.65Y-3.1
X2.65Y-3.4
X2.7Y-0.45
X2.7Y-0.75
X2.825Y-0.35
X2.825Y-0.45
X2.825Y-0.65
X2.825Y-0.75
X2.84Y-1.18
X2.84Y-1.28
X2.9256Y-0.453
X2.9256Y-0.753
X3.0256Y-0.353
X3.0256Y-0.653
X3.1256Y-0.453
X3.1256Y-0.753
X3.225Y-0.65
X3.225Y-0.75
X3.2256Y-0.353
X3.2256Y-0.453
T4
X2.575Y-1.15
X2.575Y-1.25
X2.575Y-1.35
X2.575Y-1.55
X2.575Y-1.65
T5
X0.1Y-0.2
X0.1Y-0.3
X0.1Y-0.6
X0.1Y-0.7
X0.1Y-1.0
X0.1Y-1.1
X0.1Y-1.3
X0.1Y-1.4
X0.1Y-2.25
X0.1Y-2.35
X0.1Y-2.7
X0.1Y-3.5
X0.2Y-2.7
X0.2Y-3.5
X0.3Y-2.7
X0.3Y-3.5
X0.4Y-2.7
X0.4Y-3.5
X0.5Y-2.7
X0.5Y-3.5
X0.6Y-2.7
X0.6Y-3.5
X0.7Y-2.7
X0.7Y-3.5
X0.8Y-2.7
X0.8Y-3.5
X0.9Y-2.7
X0.9Y-3.5
X1.0Y-2.7
X1.0Y-3.5
X1.1Y-2.7
X1.1Y-3.5
X1.2Y-2.7
X1.2Y-3.5
X1.3Y-2.7
X1.3Y-3.5
X1.4Y-2.7
X1.4Y-3.5
X1.5Y-2.7
X1.5Y-3.5
X1.6Y-2.7
X1.6Y-3.5
X1.7Y-2.7
X1.7Y-3.5
X1.8Y-2.7
X1.8Y-3.5
X1.9Y-2.7
X1.9Y-3.5
X2.0Y-2.0
X2.0Y-2.1
X2.0Y-2.2
X2.0Y-2.7
X2.0Y-3.5
X2.9Y-2.7
X2.9Y-2.8
X2.9Y-2.9
X2.9Y-3.0
X2.9Y-3.1
X2.9Y-3.2
X3.0Y-1.1
X3.0Y-1.2
X3.0Y-1.3
X3.0Y-1.45
X3.0Y-2.14
X3.0Y-2.3
X3.0Y-2.4
X3.0Y-2.5
X3.1Y-1.1
X3.1Y-1.2
X3.1Y-1.3
X3.1Y-1.45
X3.1Y-1.6
X3.1Y-1.7
X3.1Y-1.9
X3.1Y-2.0
X3.1Y-2.14
X3.1Y-2.3
X3.1Y-2.4
X3.1Y-2.5
T6
G00X1.2853Y-0.65
M15
G01X1.3247Y-0.65
M16
G05
G00X1.2853Y-1.45
M15
G01X1.3247Y-1.45
M16
G05
T0
M30
